<?xml version="1.0" encoding="utf-8"?>
<!-- Generator: Adobe Illustrator 25.2.3, SVG Export Plug-In . SVG Version: 6.00 Build 0)  -->
<svg version="1.1" id="Layer_1" xmlns="http://www.w3.org/2000/svg" xmlns:xlink="http://www.w3.org/1999/xlink" x="0px" y="0px"
	 viewBox="0 0 1100 1100" style="enable-background:new 0 0 1100 1100;" xml:space="preserve">
<path d="M400.96,72.26c71.53-1.69,142.46-11.9,213.83-13.93c21.45-0.61,43.1-5.55,64-11.04c19.12-5.02,26.62-1.58,31.33,19.54
	c22.5,100.85,42.9,202.05,59.6,304.03c8.97,54.8,27.18,105.8,62.88,149.76c18.91,23.28,26,45.37,9.33,77.84
	c-34.22,66.64-19.62,137.13-0.94,205.94c10.05,37,10.3,38.46-29.04,40.9c-115.6,7.16-231.28,12.98-346.92,19.45
	c-11.32,0.63-22.77,1.22-33.86,3.35c-26.06,5.02-39.16,15.53-27.5,46.36c10.96,29.01,11.81,60.58-2.65,90.27
	c-4.38,9-3.13,17.97-0.33,27.17c1.99,6.54,7.28,15.11-1.39,19.22c-6.97,3.31-16.52,4.64-23.91,2.79c-11-2.75-3.66-12.12-2.8-18.25
	c2.31-16.45-2.18-30.56-11.67-43.73c-15.81-21.94-17.81-45.66-8.49-70.71c1.08-2.9,1.39-6.09,2.53-8.96
	c7.08-17.88,3.84-34.51-6.16-50.19c-3.43-5.37-8.92-5.53-13.38-2c-15.5,12.22-28.01,30-23.75,47.95
	c8.29,34.91-2.58,70.46,7.35,104.46c4.64,15.88-0.85,22.1-15.62,20.34c-11.55-1.38-30.91,13.74-31.98-13.52
	c-8.3-210.57-36.75-420.49-14.21-632.04c9.97-93.53,12.34-187.94,15.81-282.04c0.9-24.31,9.54-33.1,31.87-33.01
	C336.91,72.36,368.94,72.26,400.96,72.26z"/>
</svg>
