<?xml version="1.0" encoding="utf-8"?>
<!-- Generator: Adobe Illustrator 25.2.3, SVG Export Plug-In . SVG Version: 6.00 Build 0)  -->
<svg version="1.1" id="Layer_1" xmlns="http://www.w3.org/2000/svg" xmlns:xlink="http://www.w3.org/1999/xlink" x="0px" y="0px"
	 viewBox="0 0 1100 1100" style="enable-background:new 0 0 1100 1100;" xml:space="preserve">
<g>
	<path d="M1006.66,839.71c-9.89-6.02-14.29-14.34-13.45-26.33c0.53-7.49-3.42-14.58-7.22-21.16c-2.8-4.86-6.7-7.8-12.42-4.82
		c-3.88,2.02-6.23,0.38-9.13-2.04c-9.99-8.34-19.06-16.55-18.53-31.6c0.33-9.23-8.89-16.53-7.85-26.68
		c0.19-1.88-2.66-3.67-4.87-3.87c-7.97-0.74-12.45-6.54-17.91-11.28c-25.23-21.95-50.83-43.39-84.88-50.55
		c-0.92-0.19-1.84-0.43-2.77-0.58c-16.8-2.65-22.33-5.34-33.58-17.04c-5.23-5.44-12.36-5.72-18.91-7.67
		c-1.94-0.58-5.08,0.41-5.29-2.63c-0.18-2.65,2.44-3.04,4.59-3.73c3.84-1.23,11.05-0.03,9.95-5.61c-0.8-4.04-7.96-3.74-12.57-3.16
		c-4.96,0.62-9.82,2.06-14.74,3.07c-3.05,0.63-6.1,1.63-8.16-2.23c-3.14-5.89-6.76-2.76-9.79,0.09c-4.47,4.21-0.83,6.31,2.55,8.42
		c1.84,1.14,3.52,2.54,5.79,4.2c-4.89,4.08-10.86,6.31-11.86,13.72c-0.61,4.47-5.79,4.62-9.38,2.63
		c-5.95-3.29-10.65-1.34-15.64,2.06c-5.98,4.06-12.51,7.33-18.35,11.58c-7.77,5.65-16.38,3.01-24.67,3.27
		c-3.81,0.12-2.79-2.4-1.19-4.36c2.33-2.86,5.86-3.51,9.05-4.78c3.48-1.39,7.1-2.56,10.37-4.34c2.65-1.44,4.33-4.29,2.85-7.19
		c-1.4-2.73-3.88-0.12-5.89-0.06c-2.59,0.08-5.59,3.6-7.61,0.16c-1.49-2.54,0.83-5.42,2.16-7.81c2.75-4.94,5.65-9.83,8.85-14.49
		c8.55-12.45,20.02-13.19,30.49-2.48c1.99,2.04,3.23,7.27,7.7,4.28c4.48-3,1.42-6.38-0.31-9.74c-2.58-5.02-8.11-9.17-4.84-16.12
		c0.82-1.74-1.04-2.71-2.76-2.78c-2.82-0.11-6.04-0.98-8.41,0.04c-16.84,7.3-35.58,12.74-42.53,32.46
		c-3.15,8.94-7.44,11.1-16.08,8.04c-6.65-2.36-23.07,11.9-21.76,18.72c0.71,3.67,5.09,4.34,7.83,6.31
		c6.08,4.37,6.53,8.88-0.18,11.78c-38.47,16.62-70.7,44.78-110.29,59.33c-6.05,2.22-11.82,3.99-18.28,3.09
		c-8.58-1.2-17.05-0.14-25.12,2.67c-9.77,3.4-19.64,4.18-29.75,2.73c-15.4-2.22-30.63-2.55-45.83,1.86c-3.38,0.98-10,2.77-10.42-1.7
		c-0.39-4.06,4.18-9.54,10.06-9.18c23.41,1.45,45.09-8.12,67.82-10.28c22.41-2.13,41.14-12.89,60.5-22.45
		c3.02-1.49,6.11-3.74,7.99-6.45c6.86-9.87,15.65-16.97,26.78-21.51c4.6-1.87,7.17-5.99,8.18-10.91c0.91-4.44,1.59-9.84-2.17-12.28
		c-3.48-2.26-6.68,2.12-9.26,4.75c-5.26,5.37-12.33,6.17-19.04,7.23c-6.2,0.98-8.8-3.8-8.05-8.89c1.88-12.77-8.05-18.12-14.9-25.44
		c-3.33-3.56-6.15-0.21-7.98,1.68c-8.91,9.21-18.48,8.1-29.08,2.37c1.84-3.15,5-1.79,7.38-2.2c4.53-0.79,8.48-3.3,8.44-7.58
		c-0.1-11.6,4.75-21.17,12.15-32.04c-10.55,0-19.48-0.24-28.39,0.09c-5.68,0.21-6.89-1.88-6.08-7.27
		c2.85-19.04-0.73-21.94-19.97-16.9c-2.73,0.72-5.49,1.36-8.24,1.96c-18.41,4.04-18.41,4.03-26.36-15c7.6-2,15.13-3.96,22.64-5.98
		c3.5-0.94,5.97,0.92,8.58,2.77c4.14,2.94,8.56,5.36,13.86,5.3c10.22-0.11,13.75-5.68,9.31-14.67c-4.45-9.02-8.88-18.06-13.44-27.02
		c-1.93-3.79-1.98-7.09,2.85-7.76c11.93-1.66,21.91-7.62,31.7-13.91c6.31-4.05,9.91-1.97,12.45,4.09c0.97,2.31,1.51,4.8,2.39,7.15
		c1.11,2.97,3.37,4.5,6.53,4.45c3.45-0.05,3.58-3.04,4.33-5.31c0.89-2.68,1.49-5.45,2.28-8.17c3.26-11.28,6.91-13.04,17.66-8.55
		c16.06,6.7,30.61-1.27,33.48-18.36c1.09-6.51,2.38-13.01,3.11-19.56c0.66-5.91-3.34-9.61-7.73-5.84
		c-15.53,13.32-28.13,3.79-41.69-3.34c-8.68-4.56-15.78-10.04-19.58-19.37c-2.37-5.82-2.3-10.94,2.52-15.42
		c3.54-3.29,4.89-5.96,1.33-10.97c-6.61-9.3-4.2-14.67,6.74-16.69c12.57-2.33,24.96-6.32,38.17-3.27
		c6.48,1.5,10.13,4.13,10.26,11.05c0.06,3.44,0.77,6.8,3.72,9.34c3.4,2.94,7.18,3.94,11.38,2.76c4.19-1.17,4.15-5.08,4.76-8.42
		c1.38-7.51-1.66-13.8-6.52-18.92c-4.56-4.8-5.66-9.92-5.15-16.24c0.8-9.98-0.92-18.9-8.99-26.56c-6.05-5.75-3.01-13.34,0.61-19.99
		c4.61-8.46,12.49-10.59,20.03-6.95c11.51,5.55,20.11,1.49,26.8-6.6c14.56-17.62,34.99-22.33,55.41-27.63
		c6.47-1.68,12.61-0.01,18.52,1.85c5.99,1.88,11.17,1.74,15.69-2.71c7.17-7.07,12.96-1.23,19.37,1.52c5.93,2.55,9.23,6.1,7.99,12.87
		c-1.81,9.8,2.19,13.92,12.08,12.12c9.14-1.66,15.8,1.54,19.82,10.05c2.52,5.33,7,6.89,12.5,6.09c8.32-1.22,14.74,1.08,18.39,9.22
		c1.71,3.81,5.2,5.2,9.04,6.01c13.86,2.91,27.64,6.1,41.98,2.84c5.07-1.15,11.06-2.45,11.46,6.1c0.03,0.75,0.99,1.68,1.75,2.14
		c13.33,8.14,12.17,19.95,10.9,33.61c-2.56,27.53-1.72,55.36-4,82.93c-5.41,65.51-4.97,131.41-13.35,196.7
		c-0.96,7.51,1.35,10.76,8.36,12.68c8.51,2.33,16.96,4.91,25.77,5.42c8.54,0.49,12.22,4.58,12.84,12.97
		c0.92,12.44,12.41,17.29,19.47,25.27c1.69,1.9,3.2-0.81,4.25-2.19c2.85-3.76,5.5-7.67,8.37-11.42c5.23-6.82,14.3-6.87,20.54-0.83
		c7.46,7.22,15.11,14.29,23.2,20.77c9.75,7.8,15.7,17.46,18.86,29.55c4.47,17.1,5.41,17.51,22.34,18.8
		c5.79,0.44,10.87,3.39,10.52,8.68c-0.85,13.03,6.56,21.75,14.77,29.11c12.85,11.52,7.54,23.14,3.2,36.41
		c-5.73-6.89-9.7-13.63-12.4-21c-1.79-4.88-3.33-8.72-9.84-6.78c-6.54,1.94-2.41,6.28-2.1,9.21c0.96,9.11,1.31,18.14,0,27.21
		C1019.25,839.71,1012.95,839.71,1006.66,839.71z"/>
	<path d="M45.25,650.83c5.82,8.51,10.25,17.47,9.54,29.28c-6.32-4.35-5.63-11.59-9.54-16.06C45.25,659.64,45.25,655.24,45.25,650.83
		z"/>
	<path d="M657.08,689.37c-0.09,4.15-3.52,4.81-6.27,6.13c-9.53,4.55-9.81,6.78-1.66,13.21c5.55,4.38,4.78,11.47-2.12,13.26
		c-15.6,4.05-30.49,9.5-44.13,18.19c-1.53,0.98-3.64,2.05-5.05,0.31c-0.75-0.92-0.44-2.95-0.17-4.39c0.81-4.31,2.23-8.54,2.69-12.87
		c0.81-7.54,5.65-10.18,11.46-14.49c9.5-7.06,22.5-8.36,29.67-18.77c1.74-2.53,4.27-4.51,7.56-5.27
		C653.38,683.68,655.47,686.06,657.08,689.37z"/>
	<path d="M291.45,764.56c16.33-12.64,34.36-19.38,54.8-19.23c5.9,0.04,11.92,0.76,17.74-1.03c3.27-1,6.12,0.73,7.13,3.02
		c1.45,3.3-2.01,4.87-4.44,5.78c-9.02,3.38-18.82,4.98-26.02,12.3c-0.65,0.66-2.48,0.62-3.6,0.3
		C322,761.41,306.84,762.16,291.45,764.56z"/>
	<path d="M460.07,443.59c0.53,5.02-3.01,7.22-7.22,7.93c-4.77,0.81-9.65-1.71-10.31-6.02c-1.5-9.67-8.11-14.13-15.23-18.89
		c-4.37-2.92-7.79-7.1-2.96-12.37c4.29-4.67,7.78-2.66,11.61,1.47c6.36,6.86,13.37,13.12,20.09,19.65
		C458.32,437.55,460.79,439.64,460.07,443.59z"/>
	<path d="M213.58,756.68c-26.3-1.59-43.68-22.16-67.2-28.41C174.47,727.64,202.9,739.84,213.58,756.68z"/>
	<path d="M103.39,703.22c16.37,2.64,29.9,8.67,40.73,21.9C128.54,726.37,109.19,715.98,103.39,703.22z"/>
	<path d="M350.63,604.4c-4.35,3.65-8.56,7.27-12.87,10.77c-2.44,1.98-5.22,2.36-7.81,0.4c-3.08-2.32-5.68-5.09-5.22-9.41
		c0.5-4.67,4.42-3.43,7.24-4.16c3.02-0.77,6.08-1.51,8.99-2.63C345.66,597.59,347.8,600.53,350.63,604.4z"/>
	<path d="M367.03,508.89c-15.86-12.22-16.77-15.02-10.63-31.34C361.2,487.81,364.47,497.01,367.03,508.89z"/>
</g>
</svg>
