<?xml version="1.0" encoding="utf-8"?>
<!-- Generator: Adobe Illustrator 25.2.3, SVG Export Plug-In . SVG Version: 6.00 Build 0)  -->
<svg version="1.1" id="Layer_1" xmlns="http://www.w3.org/2000/svg" xmlns:xlink="http://www.w3.org/1999/xlink" x="0px" y="0px"
	 viewBox="0 0 1100 1100" style="enable-background:new 0 0 1100 1100;" xml:space="preserve">
<path d="M1000.59,169.05c-14.05,83.63-23.73,167.18-35.64,250.4c-15.46,108.04-31.38,216.12-46.42,324.24
	c-13.15,94.54-25.84,189.18-39.2,283.7c-3.9,27.56-9.73,30.65-37.11,25c-62.58-12.93-125.51-23.75-188.94-31.7
	c-40.68-5.1-78.14-19.84-113.66-40.18C414.56,908.9,289.3,837.61,164.19,766.08c-16.86-9.64-33.63-19.5-49.75-30.3
	c-5.37-3.6-19.13-1.09-13.83-14.71c3.69-9.48,9.2-16.23,21.11-16.84c17.74-0.91,35.63-2.38,53-5.86c18.54-3.71,26.8-14.55,14.97-33
	c-10.47-16.34-20.67-32.9-32.21-48.47c-7.36-9.93-8.74-18.61-1.09-28.37c14.39-18.36,22.58-41.25,41.94-56.14
	c4.69-3.61,7.97-10.41,9.6-16.37c5.35-19.6,17.64-34.35,31.45-48.23c22.45-22.57,26.55-41.84,8.03-66.08
	c-23.15-30.3-26.32-62.8-20.81-98.57c2.45-15.88,1.99-32.33,1.67-48.49c-0.51-25.21-1.18-49.79,13.18-72.75
	c6.75-10.79,6.03-24.93,6.6-37.96c0.33-7.52-2.14-17.17,9.86-18.91c9.08-1.32,17.52-1.72,23.79,7.27
	c6.94,9.96,15.13,19.05,22.03,29.03c6.32,9.15,14.48,12.27,25.09,10.7c10.88-1.62,10.48-10.59,12.41-18.3
	c7.66-30.6,16.38-60.97,22.88-91.81c3.29-15.6,9.12-18.25,24.75-15.93c85.78,12.75,169.1,37.75,254.65,50.91
	c107.94,16.6,214.69,40.25,323.18,53.63C978.3,151.95,999.83,144.51,1000.59,169.05z"/>
</svg>
