<?xml version="1.0" encoding="utf-8"?>
<!-- Generator: Adobe Illustrator 25.2.3, SVG Export Plug-In . SVG Version: 6.00 Build 0)  -->
<svg version="1.1" id="Layer_1" xmlns="http://www.w3.org/2000/svg" xmlns:xlink="http://www.w3.org/1999/xlink" x="0px" y="0px"
	 viewBox="0 0 1100 1100" style="enable-background:new 0 0 1100 1100;" xml:space="preserve">
<path d="M489.16,124.93c132.71,0,265.43,0.63,398.13-0.54c26.06-0.23,38.83,5.33,44.92,33.53c11.3,52.31,27.31,60.11,81.03,49.75
	c39.6-7.63,48.6,3.81,36.53,43.74c-10.78,35.67-26.73,68.85-48.13,98.88c-18.63,26.14-30.16,56.09-29.15,85.75
	c0.85,25.01-10.18,38.63-26.43,45.93c-29.6,13.3-20.43,42.2-31.42,62.5c-28.07,51.84-56.88,103.2-92.72,150.34
	c-33.04,43.45-40.54,86.95-15.1,140.38c20.49,43.02,9.93,90.78-17.78,132.01c-6.93,10.31-17.23,7.97-26.62,7.98
	c-193.01,0.15-386.03-0.13-579.04,0.44c-20.28,0.06-29.92-5.48-27.62-26.94c1.17-10.94-1.16-22.31,0.44-33.13
	c4.83-32.75-5.95-57.02-35.77-72.41c-22.07-11.38-28.78-29.89-29.87-54.36c-6.33-142.32-13.13-284.63-21.82-426.82
	C65,300.79,61.6,239.18,47.43,179.26c-7.2-30.44,3.41-38.36,32.49-38.64c136.42-1.3,272.94,2.61,409.26-6.07
	C489.17,131.34,489.16,128.13,489.16,124.93z"/>
</svg>
