<?xml version="1.0" encoding="utf-8"?>
<!-- Generator: Adobe Illustrator 25.2.3, SVG Export Plug-In . SVG Version: 6.00 Build 0)  -->
<svg version="1.1" id="Layer_1" xmlns="http://www.w3.org/2000/svg" xmlns:xlink="http://www.w3.org/1999/xlink" x="0px" y="0px"
	 viewBox="0 0 1100 1100" style="enable-background:new 0 0 1100 1100;" xml:space="preserve">
<path d="M815.99,1052.24c-20.59,2.38-41.12,4.35-60.95-0.36c-23.35-5.55-47.01-5.46-70.5-6.79c-25.95-1.46-51.7-3.6-77.42-7.23
	c-11.03-1.56-17.72-8.6-24.82-15.6c-2.53-2.49-2.9-5.54-1.11-8.74c1.11-1.98,2.07-4.05,3.28-5.97c18.56-29.56,20.24-28.62-6.6-56.33
	c-7.73-7.98-15.15-15.28-13.71-27.99c0.93-8.19-5.45-11.94-12.58-13.78c-5.72-1.48-11.54-2.59-17.31-3.86
	c-7.18-1.59-9.91-5.3-10.01-13.35c-0.27-22.81-8.72-31.66-31.98-35.2c-4.64-0.71-7.25-3.49-10.06-6.37
	c-6.37-6.53-12.55-13.22-18.87-19.8c-11.9-12.38-26.38-19.2-43.58-20.13c-1.82-0.1-3.7,0.08-5.46-0.31
	c-41.96-9.2-48.84-19.32-39.86-57.5c2.26-9.62,2.56-17.99-2.37-26.14c-4.47-7.39-5.37-14.37-0.12-21.5
	c5.49-7.46,3.23-13.53-3.25-18.73c-14.55-11.7-21.07-27.62-26.42-45.03c-4.65-15.11-12.13-29.46-19.37-43.63
	c-5.39-10.53-12.33-20.05-6.9-32.9c2.58-6.11-2.63-9.27-7.12-11.41c-8.61-4.1-9.44-10.21-7.98-19.02c3.88-23.36,6.6-46.91,9.8-70.38
	c0.6-4.42-0.05-9.44,4.81-12.07c3.13-1.69,6.4-4.81,10-3.15c3.51,1.62,1.62,5.73,1.6,8.67c-0.08,12.01,1.58,23.66,6.84,34.53
	c2.05,4.24,5.27,8.01,10.72,6.33c5.8-1.78,3.32-6.56,2.83-10.38c-2.03-15.81-4.24-31.6-6.16-47.43c-0.41-3.42-2.43-7.93,1.18-10.14
	c3.68-2.25,7.97-0.32,11.59,1.87c1.94,1.17,3.81,2.48,5.66,3.81c15.18,10.87,32,5.28,38.44-12.41c2.15-5.91,0.17-6.94-5.25-7.19
	c-18.13-0.83-36.27,1.56-54.46-1.29c-5.67-0.89-10.05,5.93-13.6,10.36c-6.15,7.67-12.19,10.19-20.9,4.09
	c-3.24-2.27-7.52-3.13-11.4-4.42c-4.71-1.57-10.28-2.13-9.66-9.2c0.61-6.82-2.39-14.08,6.34-19.14c12.84-7.44,13.25-11.8,3.51-23.17
	c-9.84-11.49-19.76-22.67-22.83-38.21c-1.34-6.78-8.27-6.81-13.03-8.34c-10.07-3.23-10.58-8.86-3.22-14.11
	c11.65-8.3,17.74-17.25,12.19-31.98c-1.15-3.05,1.08-8.24,3.19-11.51c10.31-15.95,9.9-32.63,4.6-49.91
	c-1.47-4.78-2.21-9.83-4.05-14.45c-9.04-22.73-3.65-41.84,13.99-58.05c6.67-6.12,10.04-13.42,10.94-22.67
	c0.93-9.56,4.52-19.09,11.24-25.99c12.1-12.43,13.14-26.77,8.52-41.82c-3.74-12.2,0.15-13.2,10.51-10.03
	C361,57.84,397.22,68.53,433.4,79.35c52.35,15.65,104.62,31.55,157.12,46.69c10.77,3.1,14.39,6.13,10.58,18.33
	c-20.07,64.28-39.05,128.9-58.46,193.39c-1.07,3.56-2.53,7.35-0.42,10.59c6.61,10.16,1.85,17.17-4.98,24.95
	c-10.77,12.25-10.1,24.48,2.27,43.63c17.31,26.79,35.18,53.22,52.97,79.7c79.83,118.77,158.33,238.4,235.92,358.64
	c2.98,4.63,5.92,9.05,6.18,14.88c0.49,10.88,5.21,20.14,11.83,28.57c6.64,8.46,6.23,15.3,0.15,25.43
	c-13.17,21.96-32.09,39.36-44.93,61.58c-11.25,19.47-6.79,35.34,4.91,51.6C809.68,1041.69,814.23,1045.15,815.99,1052.24z"/>
</svg>
