<?xml version="1.0" encoding="utf-8"?>
<!-- Generator: Adobe Illustrator 25.2.3, SVG Export Plug-In . SVG Version: 6.00 Build 0)  -->
<svg version="1.1" id="Layer_1" xmlns="http://www.w3.org/2000/svg" xmlns:xlink="http://www.w3.org/1999/xlink" x="0px" y="0px"
	 viewBox="0 0 1100 1100" style="enable-background:new 0 0 1100 1100;" xml:space="preserve">
<path d="M974.06,936.85c-165.4,9.35-327.56-21.87-490.59-40.53c-141.71-16.22-282.44-40.89-423.76-60.74
	c-16.08-2.26-15.31-9.22-13.6-20.6c13.38-89.52,25.34-179.3,37.12-268.99c14.73-112.21,37.71-223.25,47.34-336.14
	c0.44-5.21,0.82-10.46,1.8-15.58c6.83-35.56,10.64-36.21,46.8-31.24c110.32,15.16,220.74,29.91,331.4,42.27
	c60.6,6.77,120.87,16.68,181.55,21.74c107.67,8.98,214.49,24.74,321.77,36.76c4.33,0.49,8.67,1.39,13,1.36
	c26.1-0.15,30.39,9.45,26.72,36.49c-9.12,67.23-11.16,135.39-17.28,203.06c-12.55,138.75-20.87,277.94-42.31,415.79
	C992.21,932.13,991.38,944.45,974.06,936.85z"/>
</svg>
