<?xml version="1.0" encoding="utf-8"?>
<!-- Generator: Adobe Illustrator 25.2.3, SVG Export Plug-In . SVG Version: 6.00 Build 0)  -->
<svg version="1.1" id="Layer_1" xmlns="http://www.w3.org/2000/svg" xmlns:xlink="http://www.w3.org/1999/xlink" x="0px" y="0px"
	 viewBox="0 0 1100 1100" style="enable-background:new 0 0 1100 1100;" xml:space="preserve">
<path d="M887.6,75.18c48.71-8.55,54.58,20.02,61.75,45.63c33.84,120.99,66.25,242.39,101.05,363.11
	c13.59,47.14-5.24,70.37-47.94,85.67c-82.44,29.55-163.96,61.64-245.89,92.62C541.6,743.5,336.02,841.39,160.63,994.09
	c-16.6,14.45-35.93,53.24-62.67,17.7c-15.86-21.09-42.67-53.35-10.79-81.43c72.54-63.9,41.9-138.32,26.41-211.75
	c-14.93-70.8-31.18-141.32-45.43-212.25C24.79,290.49,24.87,289.71,232.92,237.58c199.49-49.98,399.42-98.17,599.11-147.3
	C854.22,84.82,876.14,78.31,887.6,75.18z"/>
</svg>
