<?xml version="1.0" encoding="utf-8"?>
<!-- Generator: Adobe Illustrator 25.2.3, SVG Export Plug-In . SVG Version: 6.00 Build 0)  -->
<svg version="1.1" id="Layer_1" xmlns="http://www.w3.org/2000/svg" xmlns:xlink="http://www.w3.org/1999/xlink" x="0px" y="0px"
	 viewBox="0 0 1100 1100" style="enable-background:new 0 0 1100 1100;" xml:space="preserve">
<path d="M209.28,45.25c152.21,90.7,249.85,210.85,308.42,339.12c60.43,132.33,139.54,233.42,253.05,312.73
	c58.15,40.62,87.13,76.87,43.78,147.11c-58.37,94.57,50.67,61.34,76.19,100.82c-10.1,43.47-53.92,49.77-92.72,56.79
	c-52.19,9.44-105.89,18.86-158.34,16.26c-54.77-2.71-109.93,69.31-153.13,18.45c-33.73-39.71-35.91-106.46-51.42-161.39
	c-66.13-234.16-132.25-468.33-197.7-702.68C227.73,137.81,221.73,102.14,209.28,45.25z"/>
</svg>
