<?xml version="1.0" encoding="utf-8"?>
<!-- Generator: Adobe Illustrator 25.2.3, SVG Export Plug-In . SVG Version: 6.00 Build 0)  -->
<svg version="1.1" id="Layer_1" xmlns="http://www.w3.org/2000/svg" xmlns:xlink="http://www.w3.org/1999/xlink" x="0px" y="0px"
	 viewBox="0 0 1100 1100" style="enable-background:new 0 0 1100 1100;" xml:space="preserve">
<path d="M199.03,251.23c-0.31-6.92,9.55-13.5,0.55-21.03c-7.52-6.28-13.52-1.03-19.84,1.35c-14.1,5.31-28.04,11.04-42.02,16.65
	c-5.2,2.08-12.88,2.74-13.85,8.56c-1.16,7.05,7.28,7.35,11.8,10.28c2.81,1.82,5.62,3.63,7.66,9.59c-12.48,0-24.98,0.5-37.42-0.13
	c-14.88-0.75-5.78-10.68-6.31-17.25c-0.58-7.19,8.69-17.05-1.13-20.86c-8.58-3.33-15.21,5.28-19.96,12.96
	c-2.99,4.84-6.07,9.86-10.12,13.74c-5.98,5.73-13.26,5.19-19.78,0.7c-8-5.51,0.64-9.12,1.63-13.83c4.07-19.3-1.21-38.49-4.17-57.32
	c-2.71-17.24,0.78-22.19,18.82-22.38c84.01-0.91,168.16-2.35,251.45-13.87c23.7-3.28,40.05-1.71,51.11,20.25
	c6.5,12.89,16.92,15.33,30.49,13.78c73.59-8.43,147.52-10.7,221.53-11.48c17.23-0.18,34.43-0.68,51.45-4.3
	c17.87-3.8,35.24-4.87,49.14,11.07c6.05,6.93,12.31,6.57,15.81-3.36c1.19-3.37,2.87-6.58,4.45-9.79
	c18.62-37.72,6.37-30.01,48.83-23.47c11.86,1.83,18.08,7.39,20.6,20.34c4.91,25.31,12.28,50.15,18.82,75.13
	c16.84,64.33,46.25,122.78,83.3,177.64c2.41,3.56,5.57,6.84,7.08,10.76c23.72,61.53,58.23,117.35,91.58,173.79
	c6.24,10.56,12.25,21.41,14.28,33.53c4.09,24.35,3.4,50.3,27.24,66.8c2.41,1.67,2.62,8.16,2.08,12.17
	c-3.47,25.72-3.93,51.41,0.36,77.03c1.6,9.56-4.7,14.27-10.26,19.86c-28.69,28.82-31.36,38.59-15.47,74.06
	c5.56,12.4,4.63,19.12-7.32,25.82c-11.86,6.65-23.72,14.02-33.68,23.16c-19.65,18.03-43.09,12.06-65.57,12.71
	c-4.55,0.13-10.29-2.13-7.05-7.34c11.57-18.61-6.49-42.62,12.49-60.35c7.68-7.17,2.96-19.76,0.8-29.08
	c-3.65-15.75-15.51-4.37-22.92-3.94c-29.65,1.73-71-27.05-80.11-58.31c-4.21-14.44-7.3-26.98-21.25-6.36
	c-3.83,5.67-8.61,3.81-13.23,1.4c-9.08-4.71-16.42-11.5-22.74-19.48c-15.13-19.09-14.23-22.51,9.06-26.88
	c7.93-1.49,12.04-4.54,10.92-12.45c-1.52-10.75,6.04-24.19-5.94-31.69c-7.95-4.98-15.24,1.91-19.8,8.6
	c-10.21,14.97-18.48,12.34-26.95-1.53c-2.11-3.46-5.68-6.59-9.31-8.46c-27.07-14.01-32.54-36.78-14.93-62.48
	c3.9-5.7,12.01-10.81,8.69-18.49c-4.46-10.32-1.44-30.55-24.96-20.13c-10.16,4.5-33.81-22.78-31.56-34.63
	c4.03-21.18,9.09-42.23,18.67-61.59c20.54-41.48-0.33-74.93-20.11-108.58c-6.22-10.57-15.61-4.22-23.05-1.58
	c-18,6.4-30.69,6.12-29-18.23c0.55-7.92-3.69-13.06-9.8-17.88c-14.6-11.51-26.84-24.14-38.38-39.94
	c-17.38-23.79-46.2-40.68-75.6-51.27c-15.77-5.68-33.83,7.3-35.84,24.21c-1.15,9.65-3.79,15.29-13.73,18.86
	c-13.83,4.98-23.87,15.58-31.42,28.31c-4.03,6.79-8.39,13.24-17.68,12.65c-4.74-8.14,7.28-12.63,2.23-21.57
	c-13.77,4.2-28.19,7.75-41.97,12.99c-29.14,11.09-38.75-14.29-53.41-28.69c-12.7-12.47-14.43-27.36-0.31-41.54
	c3.09-3.1,8.56-8.51,1.94-12.45c-8.38-4.99-17.4-12.23-27.61-9.52C230.48,256.5,230.59,256.91,199.03,251.23z"/>
</svg>
