<?xml version="1.0" encoding="utf-8"?>
<!-- Generator: Adobe Illustrator 25.2.3, SVG Export Plug-In . SVG Version: 6.00 Build 0)  -->
<svg version="1.1" id="Layer_1" xmlns="http://www.w3.org/2000/svg" xmlns:xlink="http://www.w3.org/1999/xlink" x="0px" y="0px"
	 viewBox="0 0 1100 1100" style="enable-background:new 0 0 1100 1100;" xml:space="preserve">
<path d="M896.45,986.69c-36.83-13.04-55.84,1.64-63.45,35.42c-3.76,16.68-12.86,19.01-28.52,12.17
	c-18.81-8.21-38.86-7.16-59.22-2.64c-84.08,18.66-170.05,4.15-254.88,13.82c-57.52,6.56-115.79,7.01-173.76,9.16
	c-54.62,2.03-85.47-20.41-104.55-72.91c-28.22-77.64-33.53-156.88-17.14-237.63c1.6-7.86,3.87-18.07,9.5-22.21
	c29.99-22.03,21.92-45.3,4.07-69.16c-92.3-123.37-96.73-273.8-128.16-415.88c-9.43-42.62-8.68-87.34-24.8-128.53
	C48.43,90.17,57.54,89,71.39,87.55c111.63-11.66,223.21-23.77,334.79-35.82c10.58-1.14,21.38-1.74,31.59-4.45
	c23.26-6.16,38.14,1.42,37.9,25.86c-0.18,18.02,9.17,27.73,20.43,38.67C612.5,224.86,729.32,337.47,844.45,451.79
	c47.66,47.33,96.22,94.57,120.04,160.73c9.28,25.78,35.99,33.18,60.17,39.33c23.55,5.99,27.4,16.5,16.43,37.89
	c-13.83,26.97-32.03,53.07-26.53,86.48c2.3,13.96-9.65,14.4-18.74,15.24c-21.29,1.95-30.5,14.27-24.88,33.55
	c16.21,55.68-18.91,100.51-30.71,150.03C933.81,1001.9,908.84,975.39,896.45,986.69z"/>
</svg>
