<?xml version="1.0" encoding="utf-8"?>
<!-- Generator: Adobe Illustrator 25.2.3, SVG Export Plug-In . SVG Version: 6.00 Build 0)  -->
<svg version="1.1" id="Layer_1" xmlns="http://www.w3.org/2000/svg" xmlns:xlink="http://www.w3.org/1999/xlink" x="0px" y="0px"
	 viewBox="0 0 1100 1100" style="enable-background:new 0 0 1100 1100;" xml:space="preserve">
<g>
	<path d="M848.2,856.82c0.79-6.72,1.33-13.48,2.42-20.14c4.53-27.82-0.7-52.15-17.9-75.94c-23.35-32.28-21.16-47.58,6.62-73.95
		c13.58-12.89,8.54-27.95,10.24-42.51c1.1-9.4-5.16-22.17,5.96-27.3c10.02-4.62,15.96,6.98,22.84,12.58
		c15.81,12.84,32.14,25.21,50.79,33.21c35.95,15.43,65.32,37.8,86.46,71.27c7.11,11.26,18.1,20.02,26.98,30.22
		c19.45,22.33,15.88,38.35-13.1,44.59c-49.27,10.62-92.99,29.77-127.9,67.2c-9.49,10.17-21.83,12.77-34.55,4.68
		C858.04,874.99,846.44,871.11,848.2,856.82z"/>
	<path d="M561.13,462.8c14.01-25.1,27.13-43.15,59.53-35.78c22.9,5.21,46.7,6.79,68.98,15.23c5.5,2.08,12.98,3.43,15.7,7.62
		c23.17,35.73,63.2,43.12,97.82,59.58c3.81,1.81,7.88,3.17,11.45,5.35c7.38,4.49,15.38,10.98,14.72,19.12
		c-0.73,8.91-12.31,6.46-18.85,9.47c-20.57,9.49-40.03,9.94-58.39-6.64c-13.27-11.99-18.26-5.06-18.19,10.13
		c0.04,10.17,0.09,21.05-13.94,23.14c-12.24,1.82-25.46,2.57-30.99-10.58c-11.98-28.48-48.47-35.98-55.94-69.58
		c-2.6-11.7-20.35-18.93-35.73-20.61C585.8,468,574.48,465.24,561.13,462.8z"/>
	<path d="M154.42,214.5c28.47,1.97,48.02,9.44,54.07,33.69c6.12,24.49-18.44,27.82-31.08,36.38c-15.35,10.4-34.08,8.73-46.32-9.46
		c-5.15-7.65-11.43-8.07-19.79-6.26c-17.32,3.75-34.89,6.34-52.34,9.51c-4.94,0.9-10.41,2.97-13.11-3.19
		c-1.99-4.53,1.38-8.95,4.57-10.83C85.16,243.81,119.99,223.32,154.42,214.5z"/>
	<path d="M439.36,317.58c9.59-1.14,11.55,4.31,14.45,8.15c14.26,18.86,28.35,37.86,42.5,56.8c6.67,8.93,9.88,19.88,1.32,27.42
		c-7.89,6.95-19.32,5.11-27.88-2.22c-13.63-11.67-26.81-21.58-41.61-1.51c-1.77,2.4-6.59,4.39-8.47,0.46
		c-8.3-17.34-23.35-36.62-17.77-53.43C406.93,338.08,427.56,328.1,439.36,317.58z"/>
</g>
</svg>
