<?xml version="1.0" encoding="utf-8"?>
<!-- Generator: Adobe Illustrator 25.2.3, SVG Export Plug-In . SVG Version: 6.00 Build 0)  -->
<svg version="1.1" id="Layer_1" xmlns="http://www.w3.org/2000/svg" xmlns:xlink="http://www.w3.org/1999/xlink" x="0px" y="0px"
	 viewBox="0 0 1100 1100" style="enable-background:new 0 0 1100 1100;" xml:space="preserve">
<path d="M733.22,724.66c25.48-10.22,51.76,5.78,79.36,8.06c14.7,1.22,23.56,13.23,34.85,20.7c15.74,10.43,5.29,23.76,2.88,35.31
	c-17.33,83.04-35.74,165.86-52.81,248.95c-3.16,15.39-10.09,18.92-24.08,16.25c-48.05-9.15-96.01-19.01-144.32-26.54
	c-95.62-14.9-188.24-42.81-282.53-63.46c-31.21-6.83-61.77-16.6-93-23.34c-13.18-2.84-9.44-10.13-7.57-17.17
	c12.94-48.54,26.58-96.89,39.29-145.49c17-64.98,31.96-130.51,55.81-193.55c10.17-26.89,22.46-51.19,49.12-65.82
	c12.56-6.89,14.61-16.43,7.27-30.9c-40.99-80.72-36.98-56.72-10.54-138.79c30.4-94.36,60.45-188.83,89.09-283.73
	c5.61-18.58,14.97-21.7,31.04-19.12c45.15,7.26,47.59,11.38,30.12,52.22c-1.54,3.6-2.78,7.35-4.62,10.79
	c-20.8,38.76-19.71,74.66,12.86,107.19c9.9,9.88,16.76,21.64,14.37,36.84c-1.51,9.59,5.94,14.15,12.39,18.27
	c12.94,8.24,20.52,17.8,12.34,33.6c-0.85,1.64-1.4,4.1-0.82,5.74c10.21,29.04,9.35,61.56,26.46,88.25
	c8.88,13.85,8.28,25.82-5.86,36.17c-12.43,9.09-19.99,21.13-20.51,36.22c-0.55,15.79-1.65,31.34-6.82,46.29
	c-3.34,9.66,2.13,13.97,9.61,15.6c27.79,6.06,32.42,28.29,36.08,50.94c2.44,15.07,7.18,29.16,14.84,42.22
	c8.29,14.13,14.98,28.79,20.21,44.41C668.33,702.49,699.2,724.88,733.22,724.66z"/>
</svg>
