<?xml version="1.0" encoding="utf-8"?>
<!-- Generator: Adobe Illustrator 25.2.3, SVG Export Plug-In . SVG Version: 6.00 Build 0)  -->
<svg version="1.1" id="Layer_1" xmlns="http://www.w3.org/2000/svg" xmlns:xlink="http://www.w3.org/1999/xlink" x="0px" y="0px"
	 viewBox="0 0 1100 1100" style="enable-background:new 0 0 1100 1100;" xml:space="preserve">
<path d="M566.83,45.79c51.59-0.03,103.18,0.43,154.75-0.33c14.14-0.21,21.92,4.56,29.37,16.73c25.53,41.76,33.53,85.5,36.29,135.14
	c8.26,148.7,7.35,298,25.3,446.14c0.58,4.74,0.14,10.05,2.17,14.11c23.26,46.65,11.43,88.97-11.44,132.54
	c-26.92,51.3-39.93,107.41-40.94,165.5c-0.67,38.52-32.97,53.47-53.64,77.19c-0.97,1.11-3.96,1.6-5.42,0.98
	c-32.25-13.7-57.2-4.4-83.07,18.45c-10.33,9.12-24.08-8.79-29.63-21.96c-3.27-7.76-4.23-16.66-5.24-25.17
	c-4.98-41.87-20.25-76.03-59.64-98.37c-25.82-14.64-41.54-41.79-61.26-63.85c-10.69-11.95-1.6-21.51,1.99-31.46
	c12.08-33.45,15.16-65.27-12.98-93c-6.2-6.12-12.74-13.73-21.34-13.46c-26.42,0.85-37.72-17.58-50.64-35.55
	c-23.06-32.09-49.49-60.95-86.11-78.12c-10.87-5.1-15.75-12.3-15.69-24.37c0.07-15.28,1.23-31.18-2.42-45.73
	c-15.69-62.57,11.38-113.84,42.44-163.56c7.1-11.37,7.11-21.99,5.68-32.36c-3.75-27.2,7.04-44.59,29.36-59.18
	c22.32-14.59,42.38-32.62,63.52-49.03c28.79-22.35,35.65-61.39,15.79-92.91c-12.23-19.4-25.28-38.27-37.5-57.68
	c-3.3-5.24-10.86-10.64-5.95-17.5c4.2-5.88,12.33-3.09,18.74-3.1C461.83,45.75,514.33,45.81,566.83,45.79z"/>
</svg>
