<?xml version="1.0" encoding="utf-8"?>
<!-- Generator: Adobe Illustrator 25.2.3, SVG Export Plug-In . SVG Version: 6.00 Build 0)  -->
<svg version="1.1" id="Layer_1" xmlns="http://www.w3.org/2000/svg" xmlns:xlink="http://www.w3.org/1999/xlink" x="0px" y="0px"
	 viewBox="0 0 1100 1100" style="enable-background:new 0 0 1100 1100;" xml:space="preserve">
<path d="M263.38,1054.75c-5.34-27.25-5.14-53.87,8.58-77.54c51.09-88.14,54.24-179,41.27-279.88
	c-24.8-192.96-40.46-387.55-36.83-582.91c0.51-27.33,9.66-32.33,34.78-34.11c142.45-10.1,285.99-7.66,427.01-34.18
	c26.25-4.94,27.86,11.88,29.98,27.21c9.35,67.61,18.17,135.32,25.59,203.16c15.27,139.48,29.3,279.1,44.31,418.61
	c5.38,50.04,1.08,61.78-46.74,80.4c-34.98,13.61-52.61,37.6-58.2,72.59c-6.91,43.22-31.22,76.24-59.17,108.16
	c-15.52,17.72-25.82,16.76-43.13,1.91c-47.83-41.05-64.28-36.63-89.21,20.4c-3.61,8.25-6.14,17.38-16.03,19.58
	c-43.8,9.75-82.4,43.8-133.27,21.28c-27.66-12.25-56.83,2.75-83.76,14.6C293.86,1040.46,282.3,1053.77,263.38,1054.75z"/>
</svg>
