<?xml version="1.0" encoding="utf-8"?>
<!-- Generator: Adobe Illustrator 25.2.3, SVG Export Plug-In . SVG Version: 6.00 Build 0)  -->
<svg version="1.1" id="Layer_1" xmlns="http://www.w3.org/2000/svg" xmlns:xlink="http://www.w3.org/1999/xlink" x="0px" y="0px"
	 viewBox="0 0 1100 1100" style="enable-background:new 0 0 1100 1100;" xml:space="preserve">
<path d="M126.39,225.66c130.65,10,261.69,2.88,392.49,9.67c90.61,4.7,181.58,2.5,272.38,3.37c6.34,0.06,12.69-0.09,19.03,0.18
	c55.99,2.4,55.58,2.43,55.72,58.32c0.1,39.18,12.52,72.63,48.31,93.76c58.71,34.66,104.1,82.24,133.4,143.68
	c9.5,19.92,12.34,43.52-10.88,59.01c-32.41,21.63-57.46,52.22-91.36,72.33c-20.95,12.43-24.04,35.6-24.52,58.74
	c-1.15,55.69-40.16,96.15-59.58,144.53c-4.09,10.18-13.04,4.39-17.6-1.46c-34.86-44.71-83.67-40.3-132.5-40.07
	c-171.25,0.82-342.51,0.34-513.77,0.26c-32.37-0.02-64.27-25.97-60.45-57.58c11.36-94.12-28.58-178.57-59.57-259.72
	c-34.25-89.66-29.87-177.01-32.23-266.79c-0.42-15.9,6.21-19.59,20.99-18.59C86.22,226.68,106.34,225.66,126.39,225.66z"/>
</svg>
