<?xml version="1.0" encoding="utf-8"?>
<!-- Generator: Adobe Illustrator 25.2.3, SVG Export Plug-In . SVG Version: 6.00 Build 0)  -->
<svg version="1.1" id="Layer_1" xmlns="http://www.w3.org/2000/svg" xmlns:xlink="http://www.w3.org/1999/xlink" x="0px" y="0px"
	 viewBox="0 0 1100 1100" style="enable-background:new 0 0 1100 1100;" xml:space="preserve">
<path d="M769.32,817.16c-237.04-10.5-446.99-19.42-656.36-38.16c-5.08-0.45-10.14-1.19-15.19-1.95
	c-56.16-8.43-56.78-8.53-48.96-63.91c12.97-91.9,16.79-184.57,24.04-276.95c3.46-44.13,9.08-87.9,14.85-131.74
	c2.36-17.93,9.14-22.25,25.72-21.7c90.12,2.95,180.23,8,270.12,13.57c185.21,11.47,370.32,20.11,555.9,17.02
	c13.76-0.23,27.5,0.7,39.8,7.14c13.5,7.07,28.1,13.5,39,23.67c13.61,12.69-2.53,26.27-3.87,39.66c-2.33,23.41-4.31,47.98,11.7,65.99
	c22.44,25.23,26.28,55.45,26.96,85.42c2.02,88.45,0.85,176.96,1.72,265.44c0.19,19.71-12.63,16.43-24.04,16.44
	C934.55,817.21,838.4,817.16,769.32,817.16z"/>
</svg>
