<?xml version="1.0" encoding="utf-8"?>
<!-- Generator: Adobe Illustrator 25.2.3, SVG Export Plug-In . SVG Version: 6.00 Build 0)  -->
<svg version="1.1" id="Layer_1" xmlns="http://www.w3.org/2000/svg" xmlns:xlink="http://www.w3.org/1999/xlink" x="0px" y="0px"
	 viewBox="0 0 1100 1100" style="enable-background:new 0 0 1100 1100;" xml:space="preserve">
<path d="M63.12,803.12c-9.91,2.37-17.8-1.44-11.62-19.5c6.29-18.39,5.2-35.77-2.68-54.49c-10.38-24.67,2.73-39.57,28.64-32.6
	c25.32,6.8,39.09-4.32,60.35-17.28c34.96-21.31,40.29-51,44.94-82.73c3.63-24.77,26.44-24.56,39.21-35.63
	c20.63-17.88,49.28-29.09,78.12-19.58c43.69,14.4,79.9-11.25,119.17-19.53c11.43-2.41,6.42-20.12,10.84-30.09
	c2.56-5.77,5.43-13.37,10.3-15.72c7.84-3.79,10.21,5.97,14.07,10.5c21.41,25.09,46.6,24.8,66.32-1.46
	c12.96-17.27,25.79-34.66,37.97-52.49c4.67-6.83,11.28-15.59,10.28-22.5c-5.27-36.48,19.61-49.15,45.55-61.56
	c16.02-7.66,28.72-19.28,33.42-36.2c5.47-19.72,15.45-17.61,31.21-12.63c71.51,22.64,143.54,44.99,219.53,43.11
	c27.62-0.68,49.47,1.53,72.7,20.57c22.78,18.67,36.2,38.29,41.62,66.3c3.92,20.23,10.26,40.67,29.18,52.83
	c15.47,9.94,14.93,22.29,7.44,36.2c-3.98,7.4-7.63,15.69-13.63,21.18c-53.94,49.37-99.64,106.62-151.8,157.66
	c-18.39,18-41.15,25.21-66.2,27.53c-145.85,13.52-291.67,27.31-438.19,31.77c-67.63,2.06-135.64,4.98-201.64,18.9
	c-28.72,6.06-55.35,23.97-86.72,24.08C84.04,799.81,76.59,801.48,63.12,803.12z"/>
</svg>
