<?xml version="1.0" encoding="utf-8"?>
<!-- Generator: Adobe Illustrator 25.2.3, SVG Export Plug-In . SVG Version: 6.00 Build 0)  -->
<svg version="1.1" id="Layer_1" xmlns="http://www.w3.org/2000/svg" xmlns:xlink="http://www.w3.org/1999/xlink" x="0px" y="0px"
	 viewBox="0 0 1100 1100" style="enable-background:new 0 0 1100 1100;" xml:space="preserve">
<path d="M958.67,709.81c-26.6,1.98-48.58-8.04-70.8-15.33c-25.24-8.28-50.65-12.94-77.14-11.13c-9.02,0.61-21.53-0.9-25.23,7.3
	c-9.52,21.13-25.97,22.68-44.98,20.9c-11.73-1.1-16,5.09-16.86,16c-0.93,11.77,6.95,13.25,15.11,13.57
	c24.51,0.95,45.15,8.76,65.1,24.46c18.74,14.74,39.27,1.78,57.26-8.02c21.02-11.44,41.74-22.46,65.9-15.13
	c4.42,8.82-1.72,11.81-4.76,16.17c-5.44,7.8-21.63,12.47-14.95,23.27c7.37,11.91,18.96,24.33,34.31,26.18
	c12.79,1.55,13.81-12.96,19.16-21.05c3.12-4.73,5.33-10.06,8.11-15.02c5.54-9.85,14.5-17.05,25.04-12.7
	c11.39,4.7,4.65,16.09,2.47,23.88c-6.8,24.33-1.39,54.37-41.42,60.66c-14.45,2.27-5.96,27.98,3.95,41
	c18.69,24.55,45.79,36.56,73.57,47.59c27.32,10.85,29.4,27.19,6.66,45.89c-30.32,24.94-69.78,12.52-78.23-24.63
	c-7.64-33.58-42.35-68.02-75.8-69.43c-33.18-1.4-18.46,26.34-12.72,35.52c18.78,30.05,0.51,35.33-21.84,43.57
	c-26.76,9.87-29.79-11.1-33.4-25.69c-6.95-28.08-21.83-34.71-48.88-23.72c2.76,7.24,5.37,14.51,8.28,21.66
	c4.95,12.16,15.58,24.77-0.99,35.86c-13.48,9.02-28.11,6.95-41.98,0.75c-4.98-2.23-10.06-6.4-12.82-11.05
	c-18.68-31.37-44.32-37.11-78.17-26.33c-25.21,8.03-30.79-4.95-20.99-27.26c5.92-13.49,12.37-26.91,16.45-40.98
	c2.77-9.54,3.7-21.15-8.65-26.37c-9.66-4.08-17.82,0.38-24.54,7.26c-4.76,4.88-8.84,10.4-13.34,15.55
	c-12.01,13.73-23.2,11.58-26.24-5.48c-6.93-38.87-48-36.92-69.64-58.67c-9.58-9.62-42.11,1.66-52.32,19.07
	c-10.96,18.7-1.6,36.53,21.4,44.91c15.95,5.81,31.47,13.54,45.89,22.5c7.9,4.91,26.15,6.99,15.99,23.3
	c-7.63,12.24-20.45,19.05-35.29,11.08c-7.89-4.23-14.8-10.53-21.57-16.55c-32.37-28.78-69.08-42.46-112.99-36.14
	c-35.48,5.1-66.65-2.83-93.51-29.75c-21.77-21.82-48.9-13.21-72.87-1.75c-19.74,9.43-38.99,19.31-61.38,17.32
	c-14.36-1.28-22.99-5.17-13.14-23.81c13.7-25.93,23.48-53.98,34.24-81.41c7.64-19.48,9.34-38.73,1.19-59.54
	c-13.02-33.21-9.47-67.53,2.53-100.24c9.67-26.37,7.72-48.47-13.04-68.6c-12.65-12.27-21.12-29.17-21.22-45.66
	c-0.38-59.77-27.67-110.23-54.97-159.62c-25.7-46.49-17.98-95.05-18.95-143.23c-1.23-61.4-0.13-61.42,60.15-61.42
	c166.32,0.01,332.65,0.63,498.96-0.6c26.62-0.2,36.7,10.25,46.45,33.38c22.61,53.58,22.86,100.91-8.26,153.84
	c-41.98,71.42-55.24,156.31-95.84,229.29c-12.94,23.26,3.89,28.75,20.85,29.28c27.27,0.86,54.81,0.53,81.91-2.34
	c76.18-8.06,152.5-4.27,228.77-4.63c11.88-0.06,26.37-3.53,25.02,17.31c-3.28,50.87,18.99,92.56,48.52,131.5
	C954.73,699.75,955.98,704.14,958.67,709.81z"/>
</svg>
