<?xml version="1.0" encoding="utf-8"?>
<!-- Generator: Adobe Illustrator 25.2.3, SVG Export Plug-In . SVG Version: 6.00 Build 0)  -->
<svg version="1.1" id="Layer_1" xmlns="http://www.w3.org/2000/svg" xmlns:xlink="http://www.w3.org/1999/xlink" x="0px" y="0px"
	 viewBox="0 0 1100 1100" style="enable-background:new 0 0 1100 1100;" xml:space="preserve">
<path d="M874.29,534.08c-15.57,15.22-31.25,30.33-46.66,45.71c-7.88,7.86-15.74,14.64-28.05,14.29
	c-17.34-0.49-29.53,3.12-24.29,26.05c4.1,17.94-12.56,14.28-21.96,15.21c-38.48,3.8-73.73,13.7-98.4,46.75
	c-10.5-5.82-11.31-17.84-17.05-26.7c-4.23-6.54-4.56-18.81-17.33-15.12c-10.37,3-17.68,10.88-17.23,21.4
	c0.56,12.87,4.08,25.65,6.8,38.36c7.91,37.03-0.19,54.37-33.79,71.51c-20.09,10.25-33,74.87-18.88,101.32
	c-15.56,2.6-24.56-8.51-34.42-15.08c-12.38-8.25-23.35-3.66-33.69,1.44c-11.16,5.51-3.27,15.43-2.18,23.34
	c5.15,37.46-1.74,71.73-26.64,101.1c-10.2,12.03-17.39,25.22-18.07,41.07c-0.86,19.89-17.59,25.09-30.85,29.29
	c-14.08,4.45-15.62-12.77-19.72-21.19c-42.01-86.36-71.2-177.89-106.46-266.99c-19.24-48.62-36.49-98.03-54.76-147.04
	c-6.54-17.53-9.68-33.59,10.99-44.82c5.38-2.92,11.8-9,12.64-14.43c10.98-70.82,67.12-136.11,21.76-214.25
	c-18.96-32.66-14.87-72.04-7.37-108.97c11.53-56.78,32.64-110.69,50.94-165.42c7.89-23.6,20.66-34.86,39.31-8.93
	c18.35,25.52,35.12,19.08,51.59-0.58c17.25-20.58,36-17.03,60.68-13.35c82.31,12.27,123.83,60.2,143.74,137.75
	c12.66,49.29,35.15,96.05,53.15,143.97c11.63,30.94,29.44,51.75,66.85,49.76c54.82-2.91,89.42,25.6,111.12,74.51
	c8.14,18.35,12.74,39.14,28.25,53.82C874.29,516.62,874.29,525.35,874.29,534.08z"/>
</svg>
