<?xml version="1.0" encoding="utf-8"?>
<!-- Generator: Adobe Illustrator 25.2.3, SVG Export Plug-In . SVG Version: 6.00 Build 0)  -->
<svg version="1.1" id="Layer_1" xmlns="http://www.w3.org/2000/svg" xmlns:xlink="http://www.w3.org/1999/xlink" x="0px" y="0px"
	 viewBox="0 0 1100 1100" style="enable-background:new 0 0 1100 1100;" xml:space="preserve">
<path d="M1050.72,712.84c-25.01-29.38-34.43-17.93-46.03,6.4c-18.38,38.2-53.57,57.19-96.82,71.05
	c4.14-27.42-4.22-47.92-14.92-67.88c-11.83-22.08-14.39-56.96-54.32-24.11c-18.23,14.99-60.8-31.79-55.6-63.82
	c5.05-31.49,4.52-63.51,0.53-95.08c-2.03-15.82-4.82-31.49-8.21-47.09c-3.09-14.62-9.27-30.44-10.25-45.21
	c-0.91-13.26,0.53-27.05,0.83-40.23c0-1.05,0-2.11-0.3-3.09c-0.3-1.13-1.05-2.03-1.81-2.94c-3.62-4.14-8.29-7.84-13.71-8.44
	c-1.36-0.15-2.79-0.08-4.14,0.3c-11,18.16-23.36,35.49-38.58,51.08c-14.24,14.54,0.38,25.92,8.59,35.41
	c15.37,17.93,18.68,33.6,0.45,51.61c-20.95,20.64-0.08,42.27-0.3,63.44c-0.23,23.88,33.6,50.18-8.66,72.86
	c-13.26,7.08,3.24,26.6,17.63,33.53c20.42,9.95,40.99,19.14,49.2,46.94c-14.77,4.29-27.88,5.05-38.58-2.03
	c-45.81-30.44-99.3-39.4-150.39-54.77c-38.2-11.53-46.79-23.58-38.5-62.01c15.9-73.46,10.7-83.56-60.27-105.25
	c-21.78-6.71-38.12-16.12-46.64-38.58c-5.95-15.52-17.33-27.65-35.71-29.76c-12.81-1.51-20.19-10.4-24.86-20.79
	c-0.53-1.13-1.06-2.26-1.66-3.39l-31.87-23.66c-14.54-5.2-30.29-7.23-45.81-7.16c-24.41,0.23-48.52,5.42-72.33,10.7
	c-15.45,3.39-30.89,6.78-46.34,10.17c-3.92,0.83-8.29,8.66-11.45,11.83c-4.97,4.75-9.72,9.79-14.24,14.92
	c-9.12,10.32-17.55,21.25-25.69,32.32c-15.97,22-30.67,44.83-47.09,66.45c-5.88,7.76-11.08,18.76-23.36,13.94
	c-9.34-3.62-9.57-13.64-9.94-22.45c-1.36-29.91-2.56-59.82-4.22-89.73c-0.45-9.04,0.3-16.73,9.64-19.74
	c10.62-3.54,24.49-4.29,35.79-6.55c25.54-5.12,51.08-9.72,76.7-13.94c5.65-0.9,11.38-1.81,17.03-2.71
	c7.01-1.13,13.94-2.26,20.95-3.39c19.59-3.09,39.25-6.25,58.84-9.34c15.97-2.56,35.03-8.51,51.61-7.61l-0.6-0.45
	c0-0.3,85.97-14.39,129.97-21.47c103.97-16.58,207.87-33.3,311.84-49.58c8.82-1.36,19.06-6.18,27.88-2.41
	c9.27,3.92,15.82,17.71,20.95,25.77c3.09,4.75,5.95,9.64,7.99,14.99c1.36,3.69,2.34,7.53,3.16,11.45
	c1.81,8.06,3.24,16.12,4.52,24.26c1.28,7.76,1.28,16.58,3.54,24.11c4.37,14.01,8.97,28.03,12.88,42.34
	c8.74,31.87,17.25,63.82,26.45,95.53c3.99,14.01,8.14,27.95,12.51,41.82c21.32,67.73,22.68,67.28,90.94,55.45
	c7.38-1.28,14.92-1.88,22.38-3.01C1059.54,633.36,1059.54,633.36,1050.72,712.84z"/>
</svg>
