<?xml version="1.0" encoding="utf-8"?>
<!-- Generator: Adobe Illustrator 25.2.3, SVG Export Plug-In . SVG Version: 6.00 Build 0)  -->
<svg version="1.1" id="Layer_1" xmlns="http://www.w3.org/2000/svg" xmlns:xlink="http://www.w3.org/1999/xlink" x="0px" y="0px"
	 viewBox="0 0 1100 1100" style="enable-background:new 0 0 1100 1100;" xml:space="preserve">
<path d="M1019.25,592.35c13.35,35.61,23.17,61.78,35.5,94.67c-59.83-4.98-104.06,17.76-140.8,56.45
	c-20.39,21.47-33.23,14.54-49.19-7.41c-31.47-43.3-38.24-41.66-61.1,6.96c-28.39,60.39-38.26,61.3-77.27,4.92
	c-7.51-10.86-14.44-21.3-28.03-21.18c-33.29,0.3-47.51-22.12-54.8-48.3c-10.93-39.21-34.13-41.28-68.4-32.64
	C414,686.47,252.13,724.31,91.19,765.79c-37.73,9.73-46.81-0.25-45.68-36.24c1.9-60.16,2.27-120.5-0.16-180.63
	c-1.61-39.78,15.44-57.41,52.85-64.95c128.22-25.82,255.45-57.22,384.37-78.54c58.94-9.75,100.36-41.52,141.83-76.54
	c26.61-22.47,46.98-27.38,68.48,3.92c4.93,7.18,12.37,12.62,18.54,18.97c48.94,50.4,49.99,51.82-4.49,92.5
	c-23.79,17.76-30.14,38.45-24.61,64.12c7.04,32.67,30.48,11.19,47.07,12.24c31.89,2.01,58.32,14.76,76.25,41.63
	c11.76,17.62,21.68,36.48,32.34,54.84c46.54,80.14,110.76,81.49,161.07,3.44C1003.71,613.34,1009.04,606.56,1019.25,592.35z"/>
</svg>
