<?xml version="1.0" encoding="utf-8"?>
<!-- Generator: Adobe Illustrator 25.2.3, SVG Export Plug-In . SVG Version: 6.00 Build 0)  -->
<svg version="1.1" id="Layer_1" xmlns="http://www.w3.org/2000/svg" xmlns:xlink="http://www.w3.org/1999/xlink" x="0px" y="0px"
	 viewBox="0 0 1100 1100" style="enable-background:new 0 0 1100 1100;" xml:space="preserve">
<path d="M716.98,335.72c-6.42-0.43-13.15,0.18-19.08,2.84c-3.1,1.39-4.34,3.27-7.22,0.93c-2.03-1.65-3.09-5.56-3.5-8
	c-1.89-11.19,7.32-22.55,15.34-29.28c7.85-6.58,17.48-10.13,27.53-11.58c10.77-1.56,21.75-0.97,32.57-0.28
	c5.83,0.37,11.66,0.82,17.49,1.13c3.9,0.21,14.04-1.45,17.22,0.41c-27.36-15.97-52.94-27.05-59.99-50.76
	c-12.6-42.42-39.63-41.24-72.52-31.83c-1.55,0.44-3.34,0.04-4.88,0.5c-21.54,6.53-30.58,1.45-22.1-22.34
	c2.21-6.2,8.3-14.69,0.39-20.2c-7.96-5.54-18.18-4.3-25.16,2.29c-21.49,20.31-48.93,25.1-76.03,31.58
	c-20.81,4.98-40.31,13.37-58.27,25.39c-28.47,19.05-58.95,23.26-91.3,10.8c-19.81-7.63-40.36-13.24-58.41-25.31
	c-16.75-11.2-35.56-11.26-54.45-5.8c-10.48,3.03-20.98,13.35-31.6,2.17c-10.93-11.5-8.61-25.49-4.4-39.37
	c5.27-17.37,15.29-30.31,31.91-38.4c13.22-6.43,26.1-13.65,38.73-21.19c7.85-4.69,21.13-7.85,14.82-20.91
	c-5.26-10.89-18.77-9.08-26.45-5.56c-38.56,17.67-81.42,31.28-106.72,67.35c-19.61,27.95-43.18,42.26-75.69,47.95
	c-28.44,4.98-52.03,19.62-65.63,46.76c-3.65,7.28-8.17,14.36,1.35,21.42c27.12,20.13,53.59,41.11,90.74,37.08
	c7.9-0.86,16.77-0.4,24.1,2.36c40.6,15.26,81.58,29.7,119.91,50.39c36.08,19.47,60.69,46.57,62.58,90.06
	c0.48,11.14,4.77,21.86,12.27,32.45c2.45-3.17,4.82-5.38,6.18-8.1c14.67-29.27,28.95-58.74,43.82-87.9
	c7.91-15.51,17.95-29.45,34.64-36.86c15.33-6.81,25.12-5.73,24.2,15.07c-0.47,10.55-3.22,22.23,6.57,37.02
	c5.49-26.98,9.41-58.31,25.88-65.14c34.93-14.49,65.6-38.91,101.74-47.86c17.13-4.24,36.28-4.42,51.85,4.92
	c7.89,4.74,14.21,11.63,18.82,19.55c5.29,9.1,13,22.41,11.28,33.19c-0.26,1.63-0.74,3.22-1.14,4.82
	c-1.57,6.25-2.97,14.92-0.67,21.15c1.73,4.67,4.92,8.77,6.57,13.61c3.64,10.71,0.7,18.72-9.79,23.61
	c-25.12,11.72-32.67,32.01-28.54,58.13c0.51,3.2-0.2,6.57,0.1,9.82c1.3,14.26-1.34,29.74-17.24,29.83
	c-16.15,0.09-14.84-16.42-14.4-28.74c0.28-7.78,2.48-15.83-6.55-22.4c-19.35,36.38-45.03,66.82-77.06,91.83
	c-3.92,3.06-8.04,6.46-7.23,12.02c6.06,41.33,10.14,82.56-3.41,123.36c-0.45,1.34,0.63,3.17,0.91,4.78
	c5.31,30.2,15.02,58.57,33.55,83.53c7.38,9.94,13.79,20.93,13.84,33.65c0.29,77.05,6.46,155.78-58,218.13
	c60.2-1.68,119.45-2.06,177.06-10.07c87.74-12.2,175.63-19.91,263.78-26.38c31.98-2.35,45.91-13.94,54.47-45.37
	c5.7-20.92,5.04-42.29,4.66-63.53c-0.21-11.94,2.78-19.37,14.4-24.9c21.49-10.23,27.97-27.6,21.58-51.05
	c-10.31-37.88-19.19-76.15-28.82-114.22c-5.21-20.59-9.32-41.46-20.46-60.22c-6-10.12-12.92-14.16-25.04-15.64
	c-30.36-3.71-52.2,4.43-64.14,34.4c-3.88,9.74-11.2,18.07-16.67,27.21c-4.1,6.85-9.61,9.69-17.75,11
	c-21.14,3.38-34.89-9.14-40.48-24.76c-5.25-14.67,8.46-27.3,21.09-34.94c9.2-5.57,18.95-9.18,22.91-20.42
	c13.62-38.65,29.26-77.05,5.29-117.53c-3.68-6.21-4.73-13.92-7.47-20.75c-2.47-6.15-2.06-11.29,3.88-14.9
	c17.55-10.64,9.56-24.97,3.07-36.23c-8.6-14.92-17.76-39.08-37.24-33.19c-36.76,11.12-61.08-9.55-88.54-24.24
	C747.6,346.34,734.11,336.86,716.98,335.72z"/>
</svg>
