<?xml version="1.0" encoding="utf-8"?>
<!-- Generator: Adobe Illustrator 25.2.3, SVG Export Plug-In . SVG Version: 6.00 Build 0)  -->
<svg version="1.1" id="Layer_1" xmlns="http://www.w3.org/2000/svg" xmlns:xlink="http://www.w3.org/1999/xlink" x="0px" y="0px"
	 viewBox="0 0 1100 1100" style="enable-background:new 0 0 1100 1100;" xml:space="preserve">
<path d="M695.77,1054.75c-92.02-3.84-184.01-8.78-276.07-11.19c-77.1-2.02-154.28-2.06-231.4-0.78
	c-19.37,0.32-23.53-4.11-24.27-22.72c-2.82-71.18,13.54-141.51,9.05-212.52c-7.16-113.25-13.55-226.46-10.64-340.03
	c0.55-21.23-5.51-42.12-11.86-62.5c-4.23-13.58-9.09-27.25-8.18-41.54c3.62-56.84-9.15-110.37-28.23-163.5
	c-13.75-38.31-23.9-78.05-15.12-119.88c4.61-21.96,11.44-36.11,39.43-34.74c53.11,2.58,106.43,0.77,159.67,0.69
	c10.66-0.01,20.84-0.78,28.33,9.96c25.99,37.25,68.35,47.92,107.63,60.08c44.69,13.83,91.21,21.94,135.16,38.78
	c18.88,7.23,35.17,6.63,45.53-13.01c8.57-16.23,19.24-6.54,29.38-3.48c11.11,3.35,15.83,10.01,11.29,22.04
	c-2.15,5.7-1.86,12.28-3.4,18.27c-4.08,15.84,2.33,21.35,17.76,19.43c36.1-4.49,70.67,3.62,104.53,14.48
	c39.21,12.58,77.24,15.09,116.56-1.14c29.78-12.3,61.7-16.31,93.41-5.98c7.9,2.57,18.46,5.63,19.74,15.69
	c1.52,11.9-9.17,16.62-17.76,20.52c-27.4,12.43-54.8,25.08-82.96,35.61c-46.29,17.32-78.3,50.53-104.66,90.36
	c-7.92,11.97-16.1,23.34-27.98,31.59c-47.7,33.12-67.59,79.2-64.67,136.48c0.76,14.94,1.67,30.09-2.51,44.98
	c-7.18,25.61-23.07,43.3-49.75,44.77c-20.92,1.15-23.28,10.45-19.87,26.92c1.98,9.54,2.33,19.63,5.63,28.66
	c11.44,31.31,10.43,60.41-10.17,88.16c-9.29,12.52-9.67,27.94,0.61,39.65c24.1,27.47,42.76,62.01,83.57,69.59
	c6.77,1.26,10.33,6.64,13.78,11.75c16.62,24.61,35.48,46.34,65.05,56.13c9.88,3.27,15.65,11.86,18.14,21.61
	c2.6,10.15,8.11,17.46,16.82,22.76c20.93,12.73,14.6,32.83,11.44,50.23c-3.17,17.4-20.6,10.97-31.24,11.4
	c-37.18,1.51-74.46,0.59-111.7,0.59C695.84,1053.52,695.8,1054.14,695.77,1054.75z"/>
</svg>
