<?xml version="1.0" encoding="utf-8"?>
<!-- Generator: Adobe Illustrator 25.2.3, SVG Export Plug-In . SVG Version: 6.00 Build 0)  -->
<svg version="1.1" id="Layer_1" xmlns="http://www.w3.org/2000/svg" xmlns:xlink="http://www.w3.org/1999/xlink" x="0px" y="0px"
	 viewBox="0 0 1100 1100" style="enable-background:new 0 0 1100 1100;" xml:space="preserve">
<path d="M530.34,906.37c-101.07,2.43-209.92,7.91-318.97,7.48c-28.89-0.11-36.24-9.61-35.96-36.61c1.08-104.12,1.05-208.26,0-312.38
	c-0.48-47.62-4.85-95.2-6.28-142.83c-0.43-14.37-8.56-22.91-16.47-32.75c-20.58-25.59-30.54-53.3-19.63-86.7
	c13.37-40.91,4.67-61.11-36.05-77.92c-33.21-13.71-45.86-39.68-51.17-71.75c-2.57-15.55,3.6-22.53,20.86-22.49
	c167.39,0.4,334.79,0.11,502.18-0.07c12.04-0.01,24.55,1.88,33.18,9.23c35.29,30.06,78.8,55.88,68.32,113.64
	c-5.01,27.59,7.83,45.31,29.78,60.53c37.55,26.02,75.35,52.07,93.51,97.46c5.73,14.33,23.05,12.7,35.48,16.85
	c41.56,13.87,55.21,35.32,35.52,74.32c-16.9,33.49-7.8,55.05,14.41,79.11c17.84,19.32,34.34,39.55,56.46,54.49
	c33.99,22.97,52.62,54.06,47.6,96.46c-1.78,15.01,3.6,26.01,15.96,34.95c14.17,10.24,26.75,22.71,41.07,32.71
	c18.31,12.79,16.04,30.76,11.24,47.22c-4.76,16.33-18.34,25.39-36.43,20.98c-14.49-3.53-19.72,4.92-23.14,15.7
	c-3.21,10.12-5.8,20.58-7.25,31.08c-6.21,45.03-11.15,50.75-55.04,54.35c-17.7,1.45-30.26-4.36-26.63-26.71
	c4.82-29.62-4.87-40.7-34.91-41.23C758,899.56,648.06,899.76,530.34,906.37z"/>
</svg>
