<?xml version="1.0" encoding="utf-8"?>
<!-- Generator: Adobe Illustrator 25.2.3, SVG Export Plug-In . SVG Version: 6.00 Build 0)  -->
<svg version="1.1" id="Layer_1" xmlns="http://www.w3.org/2000/svg" xmlns:xlink="http://www.w3.org/1999/xlink" x="0px" y="0px"
	 viewBox="0 0 1100 1100" style="enable-background:new 0 0 1100 1100;" xml:space="preserve">
<path d="M278.8,895.84c22.24-54.68,43.27-106.4,64.31-158.12c5.59-13.74,10.1-28.05,16.99-41.11
	c28.31-53.65,37.32-105.79,10.38-165.29c-12.7-28.06-11.79-64.68,3.55-98.06c11.6-25.24,12.21-55.92-0.78-80.68
	c-22.84-43.56-16.41-79.31,12.9-117.26c30.33-39.28,55.69-82.38,83.21-123.83c1.76-2.64,4.58-5.26,4.87-8.09
	c6.11-59.76,48.87-58.68,93.23-57.98c63.54,1.01,127.11-0.12,190.66-0.05c10.53,0.01,21.25,0.54,31.56,2.5
	c22.3,4.25,34.01,14.38,31.06,41.15c-24.23,219.74-18.03,440.46-17.63,660.88c0.15,82.58,13.9,164.77,14.51,247.65
	c0.18,24.08-7.33,34.29-31.06,36.25c-23.17,1.92-45.98,8.06-69.15,10.06c-20.99,1.81-46.44,21.7-62.01,2.8
	c-23.31-28.3-50.81-55.9-48.05-99.97c3.51-56.05-10.63-65.06-67.49-61.15C454.41,891.41,368.95,899.43,278.8,895.84z"/>
</svg>
