<?xml version="1.0" encoding="utf-8"?>
<!-- Generator: Adobe Illustrator 25.2.3, SVG Export Plug-In . SVG Version: 6.00 Build 0)  -->
<svg version="1.1" id="Layer_1" xmlns="http://www.w3.org/2000/svg" xmlns:xlink="http://www.w3.org/1999/xlink" x="0px" y="0px"
	 viewBox="0 0 1100 1100" style="enable-background:new 0 0 1100 1100;" xml:space="preserve">
<path d="M138.16,639.74c-14.38-0.18-22.09,10.45-36.32,12.43c6.81-25.53-2.4-53.05,23.26-73.12c18.5-14.48,18.65-33.1,4.41-51.09
	c-6.9-8.71-10.05-17.65-4.94-27.7c4.07-8.02,3.21-15.41-3.16-20.3c-16.34-12.55-13.66-29.34-11.06-45.74
	c1.45-9.11,0.39-19.19-6.76-21.7c-17.93-6.29-17.49-20.62-20.32-34.77c-2.68-13.38-12.89-22.83-21.35-32.83
	c-17.53-20.73-22.03-42.3-9.74-67.77c7.3-15.12,11.57-31.78,16.44-47.98c4.26-14.18,11.78-17.5,26.42-13.75
	c122.75,31.39,247.04,56.04,371.37,79.98c168.74,32.49,338.83,56.68,509.94,73.14c19.37,1.86,38.86,4.74,58.18,4.04
	c19.27-0.7,21.81,7.79,19.49,23.69c-6.81,46.53-14.88,92.99-18.98,139.78c-7.94,90.67-25.58,180.12-32.68,270.85
	c-1.66,21.29-5.51,42.24-9.36,63.24c-2.34,12.73-8.02,16.51-20.14,15.8c-38.96-2.29-76.95-10.96-115.37-16.79
	c-110.92-16.83-221.75-34.28-332.73-50.69c-41.56-6.15-82.28-16.93-124.25-20.97c-12.31-1.18-17.71,2.57-20.32,13.16
	c-3.29,13.37-6.49,26.76-9.28,40.24c-2.94,14.19-16.97,16.85-22.36,10.3c-28.84-35.06-69.64-20.76-104.92-28.26
	c-17.39-3.7-36.72-0.83-50.13-16.46c-3.66-4.27-8.31-8.01-10.87-12.86c-21.98-41.59-39.24-85.06-50.26-130.87
	C129.78,661.91,133.37,651.71,138.16,639.74z"/>
</svg>
