<?xml version="1.0" encoding="utf-8"?>
<!-- Generator: Adobe Illustrator 25.2.3, SVG Export Plug-In . SVG Version: 6.00 Build 0)  -->
<svg version="1.1" id="Layer_1" xmlns="http://www.w3.org/2000/svg" xmlns:xlink="http://www.w3.org/1999/xlink" x="0px" y="0px"
	 viewBox="0 0 1100 1100" style="enable-background:new 0 0 1100 1100;" xml:space="preserve">
<path d="M817.79,796.12c-160.46,4.93-319.66-17.81-479.67-22.4c-13.92-0.4-27.71-5.87-41.61-6.08
	c-24.66-0.36-26.31-13.41-23.61-33.4c3.97-29.37,5.82-59.06,7.85-88.66c1.87-27.16-2.6-32.04-30.31-34.83
	c-32.63-3.28-65.39-5.36-97.91-9.46c-30.94-3.9-61.59-10.12-92.48-14.51c-10.61-1.51-14.84-6.08-14.8-16.63
	c0.28-85.37,9.41-169.85,24.59-253.77c2.16-11.95,7.56-14.11,19.43-12.9c108.82,11.16,218.17,14.56,327.33,20.23
	c69.12,3.59,136.32,13.19,200.97,39.29c44.72,18.05,93.41,24.46,137.53,44.92c11.6,5.38,23.22-0.08,33.6-5.52
	c40.2-21.04,79.5-15.95,119.39,1.57c21.35,9.38,34.81,23.73,44.22,45.23c21.35,48.82,32.59,100.91,51.31,150.52
	c7.62,20.19,4.75,41.74,4.55,62.76c-0.24,25.61,6.57,47.62,27.88,63.8c7.24,5.5,21.8,56.48,18.11,63.12
	c-5.15,9.29-15.14,6.75-23.09,6.8c-53.13,0.33-106.26,0.02-159.39-0.07C853.72,796.1,835.76,796.12,817.79,796.12z"/>
</svg>
