<?xml version="1.0" encoding="utf-8"?>
<!-- Generator: Adobe Illustrator 25.2.3, SVG Export Plug-In . SVG Version: 6.00 Build 0)  -->
<svg version="1.1" id="Layer_1" xmlns="http://www.w3.org/2000/svg" xmlns:xlink="http://www.w3.org/1999/xlink" x="0px" y="0px"
	 viewBox="0 0 1100 1100" style="enable-background:new 0 0 1100 1100;" xml:space="preserve">
<path d="M727.06,935.09c-10.37-6.7-15.69-15.83-22.59-23.45c-8.71-9.63-18.91-16.66-32.91-12.45
	c-13.45,4.05-19.91,14.05-22.46,27.31c-6.88,35.76-21.81,70.17-17.2,107.89c0.71,5.81,0.54,12.88-5.51,20.36
	c-15.78-23.58-31.04-46.17-46.1-68.9C460.58,805.09,340.91,624.31,221.22,443.54c-16.06-24.26-16.46-33.92,1.64-56.41
	c8.65-10.75,12.51-19.93,6.44-33.57c-4.95-11.14-1.07-23.33,2.81-34.63c29.4-85.65,54.37-172.66,79.26-259.68
	c4.03-14.07,9.41-16.2,23.39-12.21c165.32,47.15,330.8,93.75,498.15,133.33c9.58,2.27,19.24,4.19,28.88,6.17
	c30.91,6.34,32.44,8.7,25.75,39.08c-10.17,46.16-20,92.4-30.47,138.5c-38.65,170.24-74.51,341.13-117.74,510.32
	C734.38,893.84,731.33,913.75,727.06,935.09z"/>
</svg>
