<?xml version="1.0" encoding="utf-8"?>
<!-- Generator: Adobe Illustrator 25.2.3, SVG Export Plug-In . SVG Version: 6.00 Build 0)  -->
<svg version="1.1" id="Layer_1" xmlns="http://www.w3.org/2000/svg" xmlns:xlink="http://www.w3.org/1999/xlink" x="0px" y="0px"
	 viewBox="0 0 1100 1100" style="enable-background:new 0 0 1100 1100;" xml:space="preserve">
<path d="M589.3,1058.22c3.95-7.28-19.05-37.63-23.66-43.52c-9.59-12.27-21.15-22.75-33.83-31.74
	c-25.53-18.1-54.96-29.35-83.19-42.39c-23.26-10.75-57.67-24.95-73.55-46.03c-10.6-14.06-13.7-37.04-21.21-53.3
	c-9.35-20.23-20.16-40.79-19.77-63.71c17.88-0.48,35.3-9.99,45.37-24.78c4.12-6.04,7.06-12.86,11.56-18.62
	c12.79-16.33,34.02-25.99,48.08-41.2c16.25-17.58,33.75-32.17,42.58-55.31c17.36-45.51-9.76-79.77-38.49-111.58
	c-33.35-36.93-59.13-84.89-87.17-126.43c-2.7-4-5.43-8.04-7.22-12.53c-1.97-4.92-2.76-10.22-3.91-15.4
	c-2.88-13.05-8.08-25.88-7.46-39.23c0.44-9.44,3.79-18.47,6.08-27.64c5.66-22.65,4.9-46.34,4.1-69.68
	c-0.74-21.64-1.48-43.29-2.22-64.93c-0.4-11.73-0.78-23.66,2.23-35c5.17-19.46,19.77-35.16,26.24-54.23
	c3.03-8.93,4.36-18.72,9.97-26.3c8.73-11.78,25.54-14.68,39.95-11.97c14.41,2.71,27.55,9.87,41.4,14.68
	c27.59,9.58,57.62,9.71,85.74,17.64c44.62,12.59,82.71,44.31,128.34,52.51c-8.21,17.46-16,35.11-23.37,52.94
	c-9.39,22.74-18.11,45.84-24.06,69.71c-9.86,39.54-11.96,80.99-6.17,121.33c0.4,2.78,0.86,5.63,2.31,8.04
	c5.06,8.44,18.74,6.04,25.36-1.24c6.62-7.28,9.05-17.38,14.11-25.82c1.69-2.81,3.81-5.56,6.82-6.85
	c9.85-4.23,17.74,8.59,26.64,14.57c6.42,4.32,14.57,5.14,21.54,8.53c18.91,9.21,20.88,29.95,25.27,47.95
	c5.54,22.69,12.31,44.89,15.44,68.29c6.64,49.65,1.42,99.7-16.83,146.45c-51.3,131.39-94.96,265.76-141.97,398.83
	C602.68,1034.99,599.6,1039.22,589.3,1058.22z"/>
</svg>
