<?xml version="1.0" encoding="utf-8"?>
<!-- Generator: Adobe Illustrator 25.2.3, SVG Export Plug-In . SVG Version: 6.00 Build 0)  -->
<svg version="1.1" id="Layer_1" xmlns="http://www.w3.org/2000/svg" xmlns:xlink="http://www.w3.org/1999/xlink" x="0px" y="0px"
	 viewBox="0 0 1100 1100" style="enable-background:new 0 0 1100 1100;" xml:space="preserve">
<path d="M439.29,45.25c57.08,151.17,114.31,302.48,171.33,453.87c45,119.48,89.85,239.02,134.57,358.61
	c24.41,65.29-15.2,143-84.49,156.37c-83.53,16.12-168.29,25.74-252.31,39.39c-24.39,3.96-35.51-0.5-41.41-27.8
	c-36.57-169.19-9.5-339.88-13.14-509.75c-0.84-39.49,35.7-67.49,59.57-96.62c31.74-38.75,37.28-77.65,23.69-124.08
	c-15.92-54.39-26.99-110.19-42.55-164.69C382.68,89.05,388.95,59.05,439.29,45.25z"/>
</svg>
