<?xml version="1.0" encoding="utf-8"?>
<!-- Generator: Adobe Illustrator 25.2.3, SVG Export Plug-In . SVG Version: 6.00 Build 0)  -->
<svg version="1.1" id="Layer_1" xmlns="http://www.w3.org/2000/svg" xmlns:xlink="http://www.w3.org/1999/xlink" x="0px" y="0px"
	 viewBox="0 0 1100 1100" style="enable-background:new 0 0 1100 1100;" xml:space="preserve">
<path d="M1007.7,804.73c10.08-5.25,30.39,5.66,47.05-3.16c-21.23,19.96-31.77,55.35-71.47,48.35c-9.84-1.74-17.52,5.46-25.31,10.57
	c-31.99,21-63.81,42.27-96.04,62.88c-7.57,4.84-13.05,12.22-20.71,4.57c-7.56-7.56-11.68-17.88-14.53-28
	c-3.12-11.09-4.99-22.58-9.45-33.19c-5.72-13.62-14.18-21.5-28.13-24.89c-17.11-4.16-33.55-11.09-50.74-15.19
	c-38.13-9.11-69.04-23.37-88.84-62.47c-19.62-38.76-60.21-37.9-97.36-28.71c-100.69,24.91-203.58,39.09-304.16,64.84
	c-55,14.08-112.66,16.67-167.56,33.09c-9.08,2.72-24.14,12.02-29.53-1.38c-5.63-14-10.37-31.84,2.75-45.85
	c13.36-14.27,27.73-27.6,41.79-41.2c6.12-5.92,12.76-11.3,18.86-17.24c33.61-32.65,33.51-33.42,2.41-68.09
	c-7.17-7.99-15.3-14.68-16.32-27.6c-1.83-23.18,2.16-37.78,29.17-43.16c32.55-6.49,64.43-15.85,98.04-14.89
	c20.63-1.12,40.88,2.21,60.65,7.19c21.32,5.37,40.82,1.82,58.77-9.37c31.25-19.47,57.32-45.5,84.83-69.63
	c11.45-10.04,9.07-23.64,3.42-35.43c-5.84-12.17-13.68-23.46-21.37-34.64c-9.02-13.12-11.12-27.11-3.85-40.88
	c19.05-36.08,39.13-71.62,58.63-107.46c22.75-41.8,55.83-69.46,103.09-80.77c35.52-8.5,70.56-19.37,105.2-31.03
	c19.21-6.47,29.09-4.44,34.99,17.27c11.76,43.22,30.55,83.97,31.62,130.58c0.86,37.49,15.25,73.17,37.29,104.56
	c24.84,35.38,26.83,77.13,29.88,117.4c6.29,83.18,11.77,166.26,33.13,247.33c2.04,7.74,2.86,15.6-2.18,22
	c-15.04,19.11-6.02,40.9,5.37,59.4c1.16,1.89,2.39,3.77,4.02,5.27c4.14,3.8,13.49,7.07,18.96,4.61c4.13-1.86,6.12-7.14,9.71-9.95
	c12.5-9.79,28.26-16.98,42.35-24.17C950.38,831.88,979.57,819.38,1007.7,804.73z"/>
</svg>
