<?xml version="1.0" encoding="utf-8"?>
<!-- Generator: Adobe Illustrator 25.2.3, SVG Export Plug-In . SVG Version: 6.00 Build 0)  -->
<svg version="1.1" id="Layer_1" xmlns="http://www.w3.org/2000/svg" xmlns:xlink="http://www.w3.org/1999/xlink" x="0px" y="0px"
	 viewBox="0 0 1100 1100" style="enable-background:new 0 0 1100 1100;" xml:space="preserve">
<path d="M943.49,1013.13c-138.69-17.69-275.5-22.08-410.73-42.17c-20.16-2.99-41.04-1.09-61.58-1.63
	c-20.05-0.53-38.75-2.75-37.95,28.33c0.53,20.58-18.93,14.62-31.08,12.74c-57.3-8.86-114.46-18.66-171.67-28.13
	c-1.76-0.29-3.49-0.78-5.25-1.04c-39.51-6.03-39.51-6.03-49.39,33.75c-10.81,43.49-10.81,43.49-55.38,36.07
	c-59.49-9.9-59.88-9.98-49.12-67.18c22.79-121.18,32.8-244.19,52.69-365.78c22.9-140.01,40.62-280.74,58.98-421.39
	c6.11-46.84,21.1-92.34,21.41-140.08c0.1-15.19,11.16-11.22,19.17-9.92c29.06,4.72,57.83,11.46,87,15.2
	c149.54,19.18,298.63,41.57,448.28,60.08c80.58,9.97,161.14,20.26,241.82,29.61c35.96,4.16,35.44,5.97,31.69,41.26
	c-15.84,149.3-24.21,299.15-33.75,448.94c-7.43,116.72-12.77,233.67-30.16,349.61C965.57,1010.65,960.86,1020.24,943.49,1013.13z"/>
</svg>
