<?xml version="1.0" encoding="utf-8"?>
<!-- Generator: Adobe Illustrator 25.2.3, SVG Export Plug-In . SVG Version: 6.00 Build 0)  -->
<svg version="1.1" id="Layer_1" xmlns="http://www.w3.org/2000/svg" xmlns:xlink="http://www.w3.org/1999/xlink" x="0px" y="0px"
	 viewBox="0 0 1100 1100" style="enable-background:new 0 0 1100 1100;" xml:space="preserve">
<path d="M691.17,869.5c-179.32-5.47-321.37-9.15-462.97-21.31c-54.22-4.66-108.15-12.62-162.31-18.02
	c-18.47-1.84-21.48-11.15-20.47-27.29c4.19-67.11,19.4-132.67,27.19-199.27c13.98-119.67,30.1-239.1,43.02-358.89
	c2.54-23.52,13.78-24.29,30.26-23.02c63.01,4.86,125.92,12.1,189.02,14.65c182.73,7.39,364.38,32.3,547.5,32.75
	c32.27,0.08,63.84,5.97,95.5,11.34c9.35,1.58,17.18,2.29,12.81,15.86c-19.28,59.9-3.58,117.74,14.33,174.26
	c14.75,46.55,30.76,91.91,26.86,142.07c-1.32,16.98,1.98,35.32,7.38,51.65c20.7,62.64,13.52,127.09,15.44,191.04
	c0.73,24.29-13.99,23.77-30.31,23.09C900.94,873.31,777.43,869.16,691.17,869.5z"/>
</svg>
