<?xml version="1.0" encoding="utf-8"?>
<!-- Generator: Adobe Illustrator 25.2.3, SVG Export Plug-In . SVG Version: 6.00 Build 0)  -->
<svg version="1.1" id="Layer_1" xmlns="http://www.w3.org/2000/svg" xmlns:xlink="http://www.w3.org/1999/xlink" x="0px" y="0px"
	 viewBox="0 0 1100 1100" style="enable-background:new 0 0 1100 1100;" xml:space="preserve">
<path d="M871.53,752.72c-16.26,3.98-28.29-2.98-40.42-7.8c-13.05-5.18-24.33-6.18-33.68,6.25c-10.54,14.02-20.31,11.06-33.04,1.18
	c-43.78-33.98-88.78-66.4-132.68-100.24c-9.99-7.71-19.44-9.87-31.08-7.2c-8.19,1.88-16.76,2.38-24.76,4.83
	c-39.76,12.15-76.43,12.86-113.33-13.21c-26.21-18.53-59.35-13.46-90.06-7.4c-16.56,3.27-32.78,6.04-49.96,4.7
	c-20.74-1.62-40.84,4.1-58.14,15.38c-30.31,19.77-62.8,28.91-99.06,30.26c-35.6,1.33-71.03,7.26-106.54,11.08
	c-3.19,0.34-6.44,0.05-13.54,0.05c22.3-28.81,51.06-41.59,79.89-53.02c17.19-6.82,32.73-14.83,47.35-26.25
	c65.77-51.39,134.53-99.25,188.84-163.79c5.91-7.03,13.62-6.39,21.09-7.12c127.76-12.55,254.88-30.12,381.8-49.18
	c80.39-12.07,160.53-25.4,238.88-47.85c28.56-8.19,30.7-6.32,42.31,25.43c-18.42-14.67-29.12-10.32-39.78,7.23
	c-5.41,8.9-19.9,12.13-29.97,18.43c-5.87,3.68-11.86,7.7-16.39,12.81c-3.39,3.82-8.02,9.39-3.99,15.07
	c4.2,5.92,11.09,6.09,17.1,3.06c12.38-6.25,24.42-13.19,36.81-19.96c5.88,6.4,2.7,13.92,4.64,20.27c1.69,5.54-1.37,14.46,7.08,15.38
	c9.44,1.03,9.79-8.31,11.85-14.66c2.53-7.83,3.18-16.49,10.87-22.26c7.91,8.21,10.96,17.92,11.12,28.69
	c0.29,20.13-7.21,27.89-27.3,28.39c-7.01,0.18-14.04,0.1-21.05,0.35c-3.88,0.14-6.51,2.14-7.1,6.21c-0.71,4.96,1.23,8.11,6.33,8.93
	c5.54,0.88,11.07,1.9,16.65,2.46c8.72,0.88,8.17,6.09,5.59,11.88c-8.14,18.29-25.93,22.03-39.92,8.46
	c-6.06-5.88-12.36-13.99-21.36-9.61c-8.32,4.05,3.87,12.79-2.7,19.64c-6.62,2.06-13.73-1.68-20.8-4.07
	c-11.59-3.92-17.22,2.78-21.37,11.45c-5.55,11.61,4.64,14.84,11.63,18.19c17.82,8.51,36.11,3.43,53.39-1.67
	c15.74-4.65,28.22-4.24,34.23,12.65c5.02,14.11-5.21,30.53-22.12,35.19c-18.2,5.02-36.96,7.94-55.38,12.19
	c-17.93,4.13-34.96,10.75-49.34,22.51c-11.58,9.47-25.91,16.74-8.88,36.18c8.48,9.68,0.32,28.53-8.55,36.08
	c-20.68,17.61-17.75,35.19-7.43,55.37C870.48,746.05,870.64,749,871.53,752.72z"/>
</svg>
