<?xml version="1.0" encoding="utf-8"?>
<!-- Generator: Adobe Illustrator 25.2.3, SVG Export Plug-In . SVG Version: 6.00 Build 0)  -->
<svg version="1.1" id="Layer_1" xmlns="http://www.w3.org/2000/svg" xmlns:xlink="http://www.w3.org/1999/xlink" x="0px" y="0px"
	 viewBox="0 0 1100 1100" style="enable-background:new 0 0 1100 1100;" xml:space="preserve">
<path d="M391.69,195.13c41.16,0,79.53-0.19,117.9,0.1c13.45,0.1,23.06,4.31,10.99,18.93c-6.68,8.09-19.91,15.96-7.29,25.66
	c9.84,7.56,23.9,2.46,34.57-5.04c33.66-23.64,67.73-46.74,100.56-71.48c18.41-13.87,34.56-18.17,59.49-14.18
	c54.96,8.8,100.49-18.93,141.24-53.38c10.4-8.8,18.67-20.07,28.41-29.7c14.18-14.02,33.24-24.66,51.12-19.44
	c17.24,5.03,15.35,27.79,16.23,43.34c8.22,145.5,48.86,286.22,62.99,430.87c2.87,29.43,5.41,54.24-16.26,79.98
	c-18.96,22.51-29.72,52.12-43.07,79.11c-18.44,37.29-37.71,72.48-82.39,85.21c-25.49,7.26-23.88,34.79-32.01,54.08
	c-7.58,17.97-12.65,33.82-35.03,40.94c-28.26,8.99-40.56,35.42-50.14,61.68c-13.61,37.33-27.47,74.61-39.34,112.5
	c-6.8,21.7-15.38,27.03-33.92,11.59c-12.62-10.51-27.23-18.64-39.68-29.31c-31.86-27.33-63.99-47.83-104.71-15.63
	c-9.97,7.88-20.7,2.1-31.38-0.41c-99.97-23.48-199.93-47-300.13-69.46c-23.15-5.19-32.68-15.41-36.29-40.48
	c-30.3-210.31-52.26-421.52-72.84-632.93c-2.14-22.02,2.63-31.73,25.65-36.23C208.27,203.5,301.71,203.11,391.69,195.13z"/>
</svg>
