<?xml version="1.0" encoding="utf-8"?>
<!-- Generator: Adobe Illustrator 25.2.3, SVG Export Plug-In . SVG Version: 6.00 Build 0)  -->
<svg version="1.1" id="Layer_1" xmlns="http://www.w3.org/2000/svg" xmlns:xlink="http://www.w3.org/1999/xlink" x="0px" y="0px"
	 viewBox="0 0 1100 1100" style="enable-background:new 0 0 1100 1100;" xml:space="preserve">
<path d="M391.88,513.62c0-41.13-0.4-82.28,0.24-123.4c0.19-12.6-4.25-16.94-16.59-19.64c-56.06-12.29-113.29-11.28-169.95-16.4
	c-43.82-3.96-87.74-6.8-131.52-11.16c-21.63-2.15-36.82-38.27-24.25-55.72c4.03-5.6,10.53-3.6,16.07-3.79
	c37.55-1.3,74.85,1.22,112.31,4.71c48.09,4.48,96.65,3.89,144.78,8.09c166.01,14.51,332.55,19.42,498.84,28.72
	c61.9,3.46,124.11,1.71,186.18,1.58c15.59-0.03,20.49,4.77,20.8,21.13c2.54,135.68,12.65,270.96,23.6,406.17
	c1.34,16.53,1.67,33.14,2.34,49.72c0.5,12.3-5.01,18.02-14.75,8.31c-48.99-48.85-106.29-36.42-163.86-23.65
	c-8.44,1.87-17.07,3.11-25.27,5.7c-8.89,2.81-14.37,0.63-20.11-6.98c-17.64-23.37-41.2-29.56-69.23-22.08
	c-27.82,7.42-56.03,13.46-83.73,21.31c-13.63,3.86-23,2.85-30.53-10.76c-5.87-10.6-13.9-20.28-22.26-29.15
	c-8.31-8.82-18.32-15.44-29.17-2.54c-4.62,5.49-9.77,4.21-15.64,2.21c-31.43-10.7-63.24-20.51-88-44.46
	c-17.56-16.98-37.62-28.58-62.71-30.93c-8.35-0.78-16.19-6.08-24.57-7.85c-19.76-4.16-23.27-16.04-21.46-34.68
	c3.7-38.04,4.98-76.31,7.25-114.48C391.07,513.61,391.48,513.61,391.88,513.62z"/>
</svg>
