<?xml version="1.0" encoding="utf-8"?>
<!-- Generator: Adobe Illustrator 25.2.3, SVG Export Plug-In . SVG Version: 6.00 Build 0)  -->
<svg version="1.1" id="Layer_1" xmlns="http://www.w3.org/2000/svg" xmlns:xlink="http://www.w3.org/1999/xlink" x="0px" y="0px"
	 viewBox="0 0 1100 1100" style="enable-background:new 0 0 1100 1100;" xml:space="preserve">
<path d="M415.25,217.96c2.6,12.24-8.56,28.63,3.21,36.29c22.18,14.44,38.46,39.02,67.56,41.98c11.89,1.21,23.89,1.54,35.85,1.74
	c14.36,0.24,27.26,1.58,38.96,12.72c21.83,20.78,52.13,15.8,78.68,21.11c38.62,7.73,77.25,11.67,117.58,2.78
	c35.59-7.85,73.2-4.33,108.24,9.42c43.97,17.25,91.6,21.3,135.64,38.54c15.02,5.88,26.11,13.27,30.64,29.22
	c1.62,5.7,4.67,10.99,7.11,16.45c5.51,12.27,14,24.11,15.84,36.91c2.43,16.89-18.25,16.34-26.35,26.47
	c-22.89,28.61-35.53,61.55-47.48,95.71c-41.01,117.24-65.02,239.13-99.45,358.15c-5.45,18.85-16.06,13.33-26.95,10.28
	c-144.55-40.47-289.31-80.2-433.45-122.07c-115.5-33.55-230.11-70.19-345.44-104.33c-18.18-5.38-25.27-12.75-19.15-31.04
	c10.45-31.21,9.57-61.41-7.03-90.82c-9.17-16.24-2-23.32,15.44-22.5c15.65,0.74,28.89-1.41,35.97-18.99
	c22.75-56.51,64.77-101.67,92.74-155.27c12.48-23.92,25.27-47.32,32.33-73.59c10.71-39.9,23.52-78.32,55.86-107.78
	c19.02-17.33,25.43-42.16,23.81-67.84c-1.31-20.67,9.06-23.78,24.71-17.43c25.57,10.37,50.92,21.44,75.72,33.52
	C424.63,186.74,408.8,205.17,415.25,217.96z"/>
</svg>
