<?xml version="1.0" encoding="utf-8"?>
<!-- Generator: Adobe Illustrator 25.2.3, SVG Export Plug-In . SVG Version: 6.00 Build 0)  -->
<svg version="1.1" id="Layer_1" xmlns="http://www.w3.org/2000/svg" xmlns:xlink="http://www.w3.org/1999/xlink" x="0px" y="0px"
	 viewBox="0 0 1100 1100" style="enable-background:new 0 0 1100 1100;" xml:space="preserve">
<path d="M128.98,861.32c-20.19,0.65-22.44-20.61-25.13-38.68c-12.14-81.5-23.41-163.13-34.46-244.79
	c-7.92-58.48-13.83-117.27-23.11-175.52c-2.97-18.62-0.04-29.65,16.74-37.72c8.98-4.32,17.75-9.68,25.41-16.02
	c24.48-20.25,43.97-24.39,54.02,13.42c5.21,19.62,18.9,16.24,34.48,13.16c224.86-44.46,448.74-93.81,674.48-133.89
	c32.21-5.72,54.36-4.48,71.04,28.3c16.28,32,42.01,57.71,74.19,75.2c13.98,7.6,15.32,15.55,7.83,29.19
	c-23.77,43.26-21.33,90.49-16.83,137.2c2.58,26.73,17.9,46.67,40.94,61.84c34.86,22.96,34.64,38.33,1.04,61.02
	c-24.29,16.41-42.58,37.27-43.07,67.62c-0.32,19.73-10.36,22.69-26.38,26.14c-122.11,26.25-246.59,37.91-369.21,60.58
	c-147.82,27.33-296.51,48.87-445.03,71.6C142.62,860.48,139.25,860.53,128.98,861.32z"/>
</svg>
