<?xml version="1.0" encoding="utf-8"?>
<!-- Generator: Adobe Illustrator 25.2.3, SVG Export Plug-In . SVG Version: 6.00 Build 0)  -->
<svg version="1.1" id="Layer_1" xmlns="http://www.w3.org/2000/svg" xmlns:xlink="http://www.w3.org/1999/xlink" x="0px" y="0px"
	 viewBox="0 0 1100 1100" style="enable-background:new 0 0 1100 1100;" xml:space="preserve">
<path d="M361.34,194.76c74.05-19.09,136.07-1.52,193.51,38.2c24.6,17.02,52.38,22.63,80.47,11.58
	c105.08-41.32,193.39-19.78,272.88,61.05c39.1,39.76,88.43,69.53,133.63,103.16c12.19,9.07,19.98,16.32,3.61,28.29
	c-51.48,37.63-75.81,91.73-91.75,151.09c-8.34,31.05-20.94,58.02-60.23,57.65c-16.98-0.16-22.79,9.73-24.86,26.82
	c-10.58,87.43-88.18,150.58-174.85,143.93c-3.83-0.29-7.72-0.27-11.49-0.91c-17.86-3.03-41.41-8.05-44.07,15.08
	c-2.46,21.41,22.16,19.25,38.03,22.25c13.05,2.47,31,0.24,27.47,22.55c-3.85,24.32-23.13,34.14-43.4,36.81
	c-42.11,5.55-80.89-24.39-102.93-62.07c-36.89-63.08-85.79-119.06-139.14-167.52c-105.2-95.58-195.19-206.41-304.7-297.34
	c-22.59-18.76-42.2-40.58-58.95-65.34c-14.18-20.96-13.54-33.98,11.51-42.52c2.37-0.81,4.46-2.49,6.58-3.93
	C161.19,213.33,258.57,184.66,361.34,194.76z"/>
</svg>
