<?xml version="1.0" encoding="utf-8"?>
<!-- Generator: Adobe Illustrator 25.2.3, SVG Export Plug-In . SVG Version: 6.00 Build 0)  -->
<svg version="1.1" id="Layer_1" xmlns="http://www.w3.org/2000/svg" xmlns:xlink="http://www.w3.org/1999/xlink" x="0px" y="0px"
	 viewBox="0 0 1100 1100" style="enable-background:new 0 0 1100 1100;" xml:space="preserve">
<path d="M1054.72,490.75c0.41,60.19-3.88,120.05-11.31,179.71c-1.3,10.48-1.42,21.07-13.32,27.35c-16.45,8.68-14.7,22.86-3.05,32.71
	c14.48,12.25,15.62,26.58,15.2,43.2c-0.66,25.98-0.48,52,0.01,78c0.27,14.16-2.19,21.44-17.82,12.06
	c-36.17-21.71-76.52-23.13-117.05-22.74c-6.11,0.06-13.66,0.5-18.07,3.93c-31.81,24.8-64.46,13.77-97.03,3.24
	c-56.09-18.13-112.68-34.98-167.85-55.59c-51.56-19.26-105.26-21.13-158.6-24.64c-107.3-7.07-214.77-11.67-322.2-16.53
	c-24.3-1.1-47.92-6.19-71.86-8.49c-25.13-2.42-28.36-16.42-25.79-36.18c6.12-47.07,11.03-94.36,19.06-141.11
	c17.61-102.56,19.38-206.93,36.67-309.55c3.12-18.54,9.63-22.39,26.98-23.3c81.05-4.27,160.92,9.93,241.4,14.11
	c197.81,10.28,395.47,23.28,593.62,25.74c75.74,0.94,75.75,1.48,83.62,75.76c0.75,7.13,1.32,14.29,1.67,21.45
	C1050.95,410.16,1052.82,450.46,1054.72,490.75z"/>
</svg>
