<?xml version="1.0" encoding="utf-8"?>
<!-- Generator: Adobe Illustrator 25.2.3, SVG Export Plug-In . SVG Version: 6.00 Build 0)  -->
<svg version="1.1" id="Layer_1" xmlns="http://www.w3.org/2000/svg" xmlns:xlink="http://www.w3.org/1999/xlink" x="0px" y="0px"
	 viewBox="0 0 1100 1100" style="enable-background:new 0 0 1100 1100;" xml:space="preserve">
<path d="M1054.75,400.29c-2.86,16.35-13.14,23.16-22.48,30.9c-55.77,46.25-116.22,86.6-169.13,136.55
	c-21.85,20.63-53.49,25.06-79.69,39.19c-23.88,12.88-45.86,27.33-63.9,47.35c-10.78,11.96-22.63,17.52-39.4,18.47
	c-54.73,3.09-109.18,11.32-163.77,14.82c-127.76,8.19-255.68,15.9-383.9,10.78c-20.55-0.82-41.17,0.38-61.76,0.26
	c-22.78-0.14-33.17-16.22-19.03-33.64c36.09-44.45,46.17-96.57,49.12-151.02c1.27-23.42,9.64-32.09,34.32-32.16
	c35.72-0.11,71.43-5.47,107.13-8.8c7.42-0.69,16.03-0.21,19.64-8.84c4.25-10.14,12.97-8.93,21.18-9.47
	c111.93-7.36,223.89-14.28,335.77-22.29c46.4-3.32,93.1-15.48,138.84-12.21c91.61,6.55,180.46-11.1,270.39-19.77
	C1036.33,399.6,1044.71,400.29,1054.75,400.29z"/>
</svg>
