<?xml version="1.0" encoding="utf-8"?>
<!-- Generator: Adobe Illustrator 25.2.3, SVG Export Plug-In . SVG Version: 6.00 Build 0)  -->
<svg version="1.1" id="Layer_1" xmlns="http://www.w3.org/2000/svg" xmlns:xlink="http://www.w3.org/1999/xlink" x="0px" y="0px"
	 viewBox="0 0 1100 1100" style="enable-background:new 0 0 1100 1100;" xml:space="preserve">
<path d="M980.9,723.45c1.12-7.74,1.9-15.8,3.56-23.68c1.63-7.73-1.47-9.84-8.6-9.44c-19.67,1.1-30.63,14.22-27.56,33.27
	c0.58,3.6,1.26,7.22,1.42,10.84c0.39,9.04,3.09,13.83,13.38,9.59c3.39-1.39,9.09-6.12,11.44,0.45c2.37,6.62-2.97,10.87-8.23,14.13
	c-4.11,2.55-8.38,4.9-10.84-1.89c-2.28-6.29-6.68-6.8-9.93-2c-17.82,26.36-49.04,29.82-74.17,43.39
	c-27.25,14.7-53.93,28.95-68.87,57.9c-2.4,4.65-6.65,8.63-12.17,6.61c-6.57-2.4-1.27-7.82-1.36-11.79
	c-0.09-3.92,2.81-7.69,1.31-12.51c-8.01,1.1-10.04,7.94-11.93,13.33c-3.87,11.02-9.99,15.19-21.58,11.6
	c-3.49-1.08-8.52-2.88-11.63,0.8c-4.02,4.74,1.83,7.09,3.65,10.25c7.86,13.62,4.19,27.84,0.96,41.32
	c-1.92,8.04-9.21,4.87-14.56,1.52c-4.41-2.76-9.1-9.06-14.09-3.96c-4.32,4.41-0.44,11.1,3.06,14.77
	c18.74,19.59,18.78,45.78,25.51,69.6c1.09,3.85,0.26,9.58,4.82,10.56c11.41,2.44,8.7,10.98,8.7,18.16c0,8.26-0.06,18.18-7.48,22.39
	c-7.89,4.48-13.68-4.51-19.58-8.71c-15.75-11.22-32.31-18.26-52.3-15.61c-20.08,2.66-36.35-5.43-50.39-19.42
	c-15.82-15.76-23.62-38.21-42.9-51.06c-2.55-1.7-2.09-4.87-2.15-7.58c-0.11-5.02-0.77-10.12-0.12-15.05
	c3.36-25.61-5.09-45.6-24.6-63.04c-19.55-17.48-32.4-40.5-42.67-64.65c-9.54-22.45-20.99-43.57-39.54-60.04
	c-5.89-5.23-7.21-12.69-9.03-19.57c-6.42-24.3-21.61-37.56-46.49-42c-21.09-3.76-41.12-11.82-60.8-20.37
	c-18.92-8.22-29.28-5.56-42.73,10.72c-12.36,14.98-18.76,33.29-28.17,49.92c-4.15,7.32-8.35,14.55-18.76,12.02
	c-2.15-0.52-4.61-0.86-6.26-2.14c-16.37-12.64-34.77-21.48-53.41-30.21c-19.15-8.97-30.51-25.74-38.06-44.88
	c-7.52-19.06-14.91-38.22-21.07-57.75c-6.05-19.17-16.02-35.61-29.4-50.32c-22.41-24.64-44.8-49.31-66.98-74.16
	c-3.9-4.37-7.42-9.35-9.97-14.6c-4.27-8.79-7.71-19.63-2.41-27.5c4.75-7.06,15.38-2.4,23.16-1.4c76.9,9.9,154.2,15.35,231.47,21.24
	c10.32,0.79,13.63-2.1,15.34-12.84c6.75-42.52,7.45-85.43,9.81-128.2c3.19-57.89,9.59-115.45,15.43-173.09
	c2.53-24.94,3.8-50.02,5.14-75.06c0.54-10.14,4.01-13.45,14.91-13.17c39.78,1.03,79.01,6.9,118.43,11.2
	c19.48,2.12,39.06,4.22,58.61,4.4c14.6,0.13,20.63,5.68,19.69,19.91c-1.72,25.92-3.83,51.82-4.71,77.77
	c-0.79,23.24,0.16,46.54-0.29,69.81c-0.15,7.5,2.66,11.73,8.99,15.08c10.61,5.62,21.83,10.1,33.55,11.15
	c12.42,1.11,21.37,6.79,29.45,15.29c10.61,11.17,22.36,20.07,38.78,20.57c6.44,0.2,10.12,5.67,14.52,9.57
	c6.76,5.98,14.02,9.08,21.9,2.19c4.53-3.97,7.95-3.39,11.27,1.24c0.79,1.11,1.73,2.12,2.64,3.14
	c21.46,23.91,42.22,27.17,70.39,11.07c16.63-9.51,38.08-7.31,52.48,6.16c6.52,6.1,12.73,7.92,21.98,6.8
	c21.72-2.63,43.5-4.44,64.8-9.78c10.43-2.61,20.85-1.08,28.2,6.34c11.72,11.83,26.1,16.38,41.57,18.27
	c12.07,1.48,15.95,7.83,15.78,19.05c-0.36,23.26,0.14,46.53-0.4,69.78c-0.5,21.52,3.83,41.58,14.59,60.34
	c8.68,15.13,15.67,30.9,15.51,48.94c-0.02,2.64,0.5,5.77,1.94,7.86c20.4,29.68,7.8,63.06,10.18,94.66
	c0.83,10.98-6.92,21.43-11.8,31.72c-2.62,5.52-7.9,10.41-4.38,17.64c1.2,2.47-0.62,5.1-2.96,5.06c-19.41-0.32-32.54,16-50.68,18.84
	C982.86,724.26,982.43,723.96,980.9,723.45z"/>
</svg>
