<?xml version="1.0" encoding="utf-8"?>
<!-- Generator: Adobe Illustrator 25.2.3, SVG Export Plug-In . SVG Version: 6.00 Build 0)  -->
<svg version="1.1" id="Layer_1" xmlns="http://www.w3.org/2000/svg" xmlns:xlink="http://www.w3.org/1999/xlink" x="0px" y="0px"
	 viewBox="0 0 1100 1100" style="enable-background:new 0 0 1100 1100;" xml:space="preserve">
<path d="M836.6,1054.36c-117.65-21.6-237.18-31.41-354.33-57.62c-104.19-23.31-209.51-41.64-314.51-61.17
	c-23.32-4.34-30.84-10.97-24.74-37.42c60.63-262.89,119.51-526.19,179-789.35c1.82-8.05,5-15.79,7.19-23.77
	c12.01-43.68,12.04-44.05,58.41-35.26c100.26,18.99,200.3,39.15,300.74,57.06c24.16,4.31,30.53,14.91,25.43,36.77
	c-7.74,33.2-15.84,66.34-22.61,99.74c-8.38,41.36-4.02,46.1,37,55.55c66.41,15.3,133.04,29.36,200.6,38.42
	c23.41,3.14,32.37,12.09,29.8,37.72c-6.54,65.24-22.79,128.76-31.02,193.68c-19.68,155.28-42.25,310.15-66.59,464.78
	C858.35,1050.17,852.78,1056.47,836.6,1054.36z"/>
</svg>
