<?xml version="1.0" encoding="utf-8"?>
<!-- Generator: Adobe Illustrator 25.2.3, SVG Export Plug-In . SVG Version: 6.00 Build 0)  -->
<svg version="1.1" id="Layer_1" xmlns="http://www.w3.org/2000/svg" xmlns:xlink="http://www.w3.org/1999/xlink" x="0px" y="0px"
	 viewBox="0 0 1100 1100" style="enable-background:new 0 0 1100 1100;" xml:space="preserve">
<path d="M277.25,229.15c-5.26-36.24,9.59-52.7,45.88-62.36C460.66,130.2,597.88,92.06,733.77,49.86
	c40.83-12.68,56.17,1.35,62.89,35.23c10.33,52.02,17.52,104.65,26.47,156.95c4.45,25.98-14.93,38.19-29.75,52.63
	c-61.22,59.63-88.65,126.51-58.91,213.04c14.61,42.51,1.61,88.7-3.83,132.83C719.63,729.97,719,818.2,744,906.07
	c17.81,62.6-1.69,96.84-61.56,119.87c-136.53,52.51-157.87,40.94-191.25-99.56c-14.79-62.26-31.65-124.55-82.46-169.18
	c-19.84-17.43-22.27-41.16-26.11-63.4c-24.89-144.33-38.9-291.07-99.81-427.07C277.83,255.6,278.96,241.74,277.25,229.15z"/>
</svg>
