<?xml version="1.0" encoding="utf-8"?>
<!-- Generator: Adobe Illustrator 25.2.3, SVG Export Plug-In . SVG Version: 6.00 Build 0)  -->
<svg version="1.1" id="Layer_1" xmlns="http://www.w3.org/2000/svg" xmlns:xlink="http://www.w3.org/1999/xlink" x="0px" y="0px"
	 viewBox="0 0 1100 1100" style="enable-background:new 0 0 1100 1100;" xml:space="preserve">
<path d="M45.25,806.97c58.27-54.88,107.7-115.69,159.98-177.66c8.25,7.54,18.92,17.76,30.08,27.43
	c26.51,22.96,43.95,21.97,64.61-5.8c10.06-13.53,20.74-21.88,37.62-17.01c17.78,5.12,26.86-13.63,41.01-14.61
	c44.88-3.11,62.61-29.59,65.69-70.61c0.81-10.76,7.75-16.69,16.31-21.91c14.26-8.69,28.17-17.96,42.2-27.03
	c4.01-2.59,10.99-4.93,11.4-8.07c4.59-34.8,32.19-23.3,52.31-26.79c19.6-3.41,32.54-14.99,33.69-34.67
	c0.95-16.23,9.14-26.23,20.08-35.9c12.57-11.11,24.63-22.76,29.68-39.54c1.43-4.75,3.25-9.8,8.52-10.47
	c27.02-3.41,39.51-24.83,54.25-43.31c7.56-9.48,13.99-12.19,20.51,0.58c10.06,19.69,27.64,27.41,48.26,30.57
	c17.56,2.69,24.17,12.68,20.62,30.37c-2.5,12.44-3.19,25.23-5.06,37.81c-3.08,20.74,9.03,30.65,26.3,35.69
	c27.41,7.99,55.59,13.55,82.56,22.73c25.68,8.74,34.15,34.92,51.87,53.72c-12.85,6.53-23.35,2.83-33.31,4.2
	c-6.44,0.88-15.44-2.4-16.6,8.6c-1.04,9.94,6.42,12.29,13.59,13.08c34.63,3.84,47.04,33.22,64.95,56.14
	c2.63,3.36,2.69,8.72,5.56,18.92c-47.63-26.95-90.1-67.71-145.11-23.49c10.86,9.4,23.11,4.48,33.83,4.35
	c23.07-0.28,45.62,2.42,62.53,18.47c24.35,23.11,49.6,25.1,80.12,14.06c27.2-9.85,35.67,0.78,29.57,28.93
	c-3.05,14.07-13.68,11.83-21.73,13.83c-86.4,21.39-174,36.28-261.94,50.05c-133.55,20.91-267.53,37.63-401.78,53.31
	c-103.48,12.09-206.8,25.35-310.65,34.01C52.96,807.25,49.09,806.97,45.25,806.97z"/>
</svg>
