<?xml version="1.0" encoding="utf-8"?>
<!-- Generator: Adobe Illustrator 25.2.3, SVG Export Plug-In . SVG Version: 6.00 Build 0)  -->
<svg version="1.1" id="Layer_1" xmlns="http://www.w3.org/2000/svg" xmlns:xlink="http://www.w3.org/1999/xlink" x="0px" y="0px"
	 viewBox="0 0 1100 1100" style="enable-background:new 0 0 1100 1100;" xml:space="preserve">
<g>
	<path d="M53.38,580.75c-0.02-0.28-0.05-0.54-0.08-0.8c-0.59-5.3-1.01-10.62-1.43-15.94c-0.19-2.39-0.38-4.79-0.56-7.18
		c-0.79-10.09-1.58-20.22-1.11-30.33c0.17-3.61,0.73-7.67,3.64-9.84c0.31-0.23,0.69-0.45,1.07-0.37c0.34,0.07,0.58,0.36,0.8,0.63
		c4.05,5.28,4.16,12.49,4.1,19.15c-0.13,13.81-0.26,27.62-0.45,41.42c-0.02,1.7,0,3.54,1.07,4.86c1.82,2.25,8.68-1.11,11.03-2.07
		c4.27-1.76,7.98-4.6,11.25-7.81c6.83-6.71,11.81-15,18.26-22.03c11.8-12.87-1.69-23.61-7.53-32.92
		c-14.16-22.55-15.35-43.4-2.19-67.08c9.87-17.76,15.78-37.72,23.43-56.71c7.37-18.29,9.36-38.21-1.25-54.22
		c-25.34-38.26-8.75-70.3,11.82-105.74c31.48,41.72,70.48,71.67,120.87,82.48c27.6,5.92,54.17,18.07,83.45,15.66
		c14.57-1.2,14.66,5.74,7.91,15.85c-4.95,7.41-9.88,14.85-14.26,22.6c-2.42,4.29-6.79,9.83-0.18,13.83
		c29.71,17.96,14.41,39.43,4.4,59.77c-8.4,17.07-16.83,33.43-3.9,53.05c26.24-20.57,32.44-50.88,43.26-78.75
		c2.83-7.28,1.66-19.57,15.75-16.84c7.14,1.38,15.91,9.93,20.88-0.81c4.37-9.46,7.75-23.06-0.56-30.47
		c-33.33-29.73-17.34-57.25,1.93-84.71c8.93-12.72,7.9-21.67-4.57-31.42c-13.72-10.73-21.39-24.33-9.19-41.53
		c10.71,0,21.43,0,32.14,0c36.55,22.14,79.18,25.21,119.05,35.91c162.55,43.62,324.39,90.21,489.24,124.76
		c18.97,3.98,21.55,10.86,15.73,28.93C997.16,557.3,947.9,712.78,899.25,868.44c-6.02,19.27-14.69,22.18-32.74,16.47
		c-43.24-13.68-87.17-25.18-130.6-38.27c-59.87-18.05-121.6-26.5-182.22-12.94c-50.21,11.23-95.15-4.4-142.01-12.03
		c-24.04-3.91-48.93-6.52-66-29.01c-7.38-9.73-21.41-7.09-32.97-6.69c-33.78,1.16-64.85-6.99-94.82-22.99
		c-16.52-8.82-24.48-19.38-21.41-37.73c7.53-44.95-4.58-77.21-49.79-98.07c-26.54-12.24-49.19-32.43-80.9-28.87
		c-3.31,0.37-7.67,0.16-9.8-2.88C53.66,592.09,53.76,585.15,53.38,580.75z"/>
</g>
</svg>
