<?xml version="1.0" encoding="utf-8"?>
<!-- Generator: Adobe Illustrator 25.2.3, SVG Export Plug-In . SVG Version: 6.00 Build 0)  -->
<svg version="1.1" id="Layer_1" xmlns="http://www.w3.org/2000/svg" xmlns:xlink="http://www.w3.org/1999/xlink" x="0px" y="0px"
	 viewBox="0 0 1100 1100" style="enable-background:new 0 0 1100 1100;" xml:space="preserve">
<path d="M374.73,161.75c4.04,52.15,32.62,48.86,62.26,45.25c49.52-6.04,99.51-9.04,148.64-17.32c41.86-7.05,57.52,8.41,58.15,49.07
	c0.49,31.58-3.33,63.85,6.64,94.74c5.86,18.16,8.1,39.94,34.07,42.33c25.11,2.31,47.81,1.3,62.36-25.14
	c16.01-29.11,35.44-56.32,51.9-85.21c48.32-84.81,126.48-101.18,214.56-94.08c23.54,1.9,50.42,44.9,38.55,65.15
	c-15.8,26.94-23.5,63.59-65.88,66.88c-22.24,1.73-40.54,16.39-49.21,36.4c-16.71,38.55-41.57,69.4-73.89,95.72
	c-18.08,14.73-25.86,36.22-30.92,59.18c-10.02,45.43-28.8,56.58-74.59,46.81c-7.37-1.57-14.75-3.56-21.73-6.35
	c-40.18-16.05-59.84-5.08-54.06,40.34c3.32,26.08-7.33,44.28-32.33,52.3c-76.99,24.7-121.05,74.96-127.05,157.38
	c-2.19,30.12-18.69,45.99-51.69,40.73c-13.19-2.1-32.33-5.1-39.83,1.9c-33.03,30.79-66.28,35.93-109.31,21.35
	c-20.83-7.06-27.43,23.83-37.62,39.14c-42.55,63.9-42.9,65.18-98.49,11.22c-43.42-42.13-83.9-87.27-126.52-130.26
	c-12.06-12.16-14.38-25.09-13.19-41.04c6.69-90.36,36.36-173.85,74.74-254.86c5.6-11.83,13.37-21.41,27.28-19.77
	c34.45,4.06,44.61-17.43,49.48-45.02c6.48-36.68,16.35-66.83,59.56-80.5c28.54-9.03,37.63-45.56,54.71-70.26
	C330.82,229.57,349.21,200.53,374.73,161.75z"/>
</svg>
