<?xml version="1.0" encoding="utf-8"?>
<!-- Generator: Adobe Illustrator 25.2.3, SVG Export Plug-In . SVG Version: 6.00 Build 0)  -->
<svg version="1.1" id="Layer_1" xmlns="http://www.w3.org/2000/svg" xmlns:xlink="http://www.w3.org/1999/xlink" x="0px" y="0px"
	 viewBox="0 0 1100 1100" style="enable-background:new 0 0 1100 1100;" xml:space="preserve">
<path d="M1016.37,353.75c9.62,25.7,6.46,38.62,0.67,51.57c-10.32,23.05-19.46,46.66-30.41,69.4
	c-41.74,86.71-71.11,176.88-91.89,271.26c-9.44,42.85-5.34,77.34,9.21,115.66c17.21,45.31,27.3,92.56,21.42,141.77
	c-3.37,28.16-13.07,44.17-47.69,43.24c-105.56-2.83-211.24-1.52-316.87-1.68c-8.01-0.01-16.69-0.79-23.92,1.86
	c-67.46,24.75-111.58-12.41-153.35-56.65c-6.63-7.02-11.18-14.4-10-24.46c6.3-53.57-8.68-105.16-17.37-156.87
	c-10.27-61.1-39.2-112.77-102.07-135.99c-19.13-7.06-28.35-22.71-38.81-37.47c-16.42-23.16-35.14-40.93-64.88-47.01
	c-28.24-5.78-35.7-37.01-55.92-53.14c-26.31-21-17.27-43.24-4.8-66.94c18.24-34.68,17.16-71.31,5.41-107.23
	c-6.77-20.7-4.4-36.06,14.88-46.69c59.25-32.67,72.9-83.34,65.67-147.37c-5.68-50.35,7.71-64.61,55.33-79.77
	C272.51,74,313.86,59.61,356.21,49.54c44.5-10.59,51.42-2.9,37.53,38.12c-7.74,22.87-1.8,26.72,20.51,35.94
	c40.88,16.89,77.44,44.24,115.85,67.13c9.83,5.86,19.46,13.21,31.51,12.77c82.25-3,149.87,40.11,220.25,72.2
	c41.56,18.95,72.99,51.09,74.15,103.04c0.52,23.46,13.36,43.84,24.99,63.57c12.39,21.02,12.63,40.03-0.24,61.24
	c-14.27,23.5-26.16,48.48-38.46,73.12c-4.79,9.59-7.6,22.66,3.17,27.83c13.14,6.31,18-6.55,24.68-16.38
	C920.18,514.6,975.67,444.71,1016.37,353.75z"/>
</svg>
