<?xml version="1.0" encoding="utf-8"?>
<!-- Generator: Adobe Illustrator 25.2.3, SVG Export Plug-In . SVG Version: 6.00 Build 0)  -->
<svg version="1.1" id="Layer_1" xmlns="http://www.w3.org/2000/svg" xmlns:xlink="http://www.w3.org/1999/xlink" x="0px" y="0px"
	 viewBox="0 0 1100 1100" style="enable-background:new 0 0 1100 1100;" xml:space="preserve">
<path d="M923.87,961.34c-62.32-8.13-138.36-20.77-214.92-27.43c-129.94-11.3-258.43-33.46-387.86-48.55
	c-74.39-8.67-147.71-26.57-221.52-40.21c-61-11.28-59.99-11-47.53-71.76c33.44-163.1,66.33-326.32,98.54-489.67
	c9.56-48.48,42.12-88.13,49.78-137.3c2.02-12.95,15.36-6.1,23.07-4.78c64.21,11,128.03,24.61,192.47,33.88
	C621,205,824.96,242.4,1031.03,265.1c18.46,2.03,24.66,7.66,23.6,26.46c-3.42,60.78-18.11,120.13-22.94,180.51
	c-11.91,149-39.49,296.28-47.61,445.62C981.38,967.49,983.7,960.64,923.87,961.34z"/>
</svg>
